<?xml version="1.0" encoding="UTF-8" standalone="no"?>
<svg
   xmlns:dc="http://purl.org/dc/elements/1.1/"
   xmlns:cc="http://creativecommons.org/ns#"
   xmlns:rdf="http://www.w3.org/1999/02/22-rdf-syntax-ns#"
   xmlns:svg="http://www.w3.org/2000/svg"
   xmlns="http://www.w3.org/2000/svg"
   viewBox="0 0 700.87335 304.02267"
   height="304.02267"
   width="700.87335"
   xml:space="preserve"
   id="svg2"
   version="1.1"><metadata
     id="metadata8"><rdf:RDF><cc:Work
         rdf:about=""><dc:format>image/svg+xml</dc:format><dc:type
           rdf:resource="http://purl.org/dc/dcmitype/StillImage" /></cc:Work></rdf:RDF></metadata><defs
     id="defs6" /><g
     transform="matrix(1.3333333,0,0,-1.3333333,0,304.02267)"
     id="g10"><g
       transform="translate(50.229,170.079)"
       id="g12"><g
         id="g14"><g
           id="g16" /><g
           id="g18"><g
             id="g20"><g
               id="g22"><path
                 id="path24"
                 style="fill:#050064;fill-opacity:1;fill-rule:nonzero;stroke:#4c4c4c;stroke-width:1.24535;stroke-linecap:butt;stroke-linejoin:miter;stroke-miterlimit:10;stroke-dasharray:none;stroke-opacity:1"
                 d="m 45.62181,57.31628 h -91.24362 c -2.20094,0 -3.98511,-1.78416 -3.98511,-3.9851 V 4.60777 c 0,-2.20094 1.78417,-3.9851 3.98511,-3.9851 h 91.24362 c 2.20094,0 3.98511,1.78416 3.98511,3.9851 v 48.72341 c 0,2.20094 -1.78417,3.9851 -3.98511,3.9851 z" /></g><g
               transform="translate(-37.491,25.98)"
               id="g26"><g
                 id="g28"><g
                   transform="translate(-12.738,-196.059)"
                   id="g30"><text
                     id="text38"
                     style="font-variant:normal;font-weight:normal;font-size:11.9552002px;font-family:CMBX12;-inkscape-font-specification:CMBX12;writing-mode:lr-tb;fill:#ffffff;fill-opacity:1;fill-rule:nonzero;stroke:none"
                     transform="matrix(1,0,0,-1,19.289,210.206)"><tspan
                       id="tspan32"
                       y="0"
                       x="0 8.8277197 12.56372 16.299719 23.024519 26.760519 34.232521 37.968521 41.704521 45.440521 50.300308">Eligibility</tspan><tspan
                       id="tspan34"
                       y="13.948"
                       x="-0.574 3.5350022 10.259802 20.236416 26.961216 33.686016 40.410816 45.641216 52.739017">for401(k)</tspan><tspan
                       id="tspan36"
                       y="27.895"
                       x="16.089001 23.561001 27.297001 33.8353">plan</tspan></text>
<g
                     transform="translate(12.738,196.059)"
                     id="g40" /></g></g><g
                 transform="translate(37.491,-25.98)"
                 id="g42" /></g></g><g
             id="g44"><g
               id="g46"><path
                 id="path48"
                 style="fill:#050064;fill-opacity:1;fill-rule:nonzero;stroke:#4c4c4c;stroke-width:1.24535;stroke-linecap:butt;stroke-linejoin:miter;stroke-miterlimit:10;stroke-dasharray:none;stroke-opacity:1"
                 d="m 260.16638,57.31628 h -95.13064 c -2.20094,0 -3.98511,-1.78416 -3.98511,-3.9851 V 4.60777 c 0,-2.20094 1.78417,-3.9851 3.98511,-3.9851 h 95.13064 c 2.20094,0 3.98511,1.78416 3.98511,3.9851 v 48.72341 c 0,2.20094 -1.78417,3.9851 -3.98511,3.9851 z" /></g><g
               transform="translate(166.03,25.98)"
               id="g50"><g
                 id="g52"><g
                   transform="translate(-216.259,-196.059)"
                   id="g54"><text
                     id="text62"
                     style="font-variant:normal;font-weight:normal;font-size:11.9552002px;font-family:CMBX12;-inkscape-font-specification:CMBX12;writing-mode:lr-tb;fill:#ffffff;fill-opacity:1;fill-rule:nonzero;stroke:none"
                     transform="matrix(1,0,0,-1,222.236,210.206)"><tspan
                       id="tspan56"
                       y="0"
                       x="0 8.8169603 15.355259 20.848673 26.079073 29.815073 35.792675 39.528675 47.000671 53.538971 58.769371 62.505371 69.230171">Participation</tspan><tspan
                       id="tspan58"
                       y="13.948"
                       x="11.637 15.373 27.328199 34.053001 40.777802 47.502602 52.733002 59.830803">in401(k)</tspan><tspan
                       id="tspan60"
                       y="27.895"
                       x="25.740999 33.213001 36.949001 43.487297">plan</tspan></text>
<g
                     transform="translate(216.259,196.059)"
                     id="g64" /></g></g><g
                 transform="translate(-166.03,-25.98)"
                 id="g66" /></g></g><g
             id="g68"><g
               id="g70"><path
                 id="path72"
                 style="fill:#050064;fill-opacity:1;fill-rule:nonzero;stroke:#4c4c4c;stroke-width:1.24535;stroke-linecap:butt;stroke-linejoin:miter;stroke-miterlimit:10;stroke-dasharray:none;stroke-opacity:1"
                 d="m 470.82396,57.31628 h -91.24364 c -2.20094,0 -3.98511,-1.78416 -3.98511,-3.9851 V 4.60777 c 0,-2.20094 1.78417,-3.9851 3.98511,-3.9851 h 91.24364 c 2.20094,0 3.98511,1.78416 3.98511,3.9851 v 48.72341 c 0,2.20094 -1.78417,3.9851 -3.98511,3.9851 z" /></g><g
               transform="translate(392.507,25.98)"
               id="g74"><g
                 id="g76"><g
                   transform="translate(-442.736,-196.059)"
                   id="g78"><text
                     id="text86"
                     style="font-variant:normal;font-weight:normal;font-size:11.9552002px;font-family:CMBX12;-inkscape-font-specification:CMBX12;writing-mode:lr-tb;fill:#ffffff;fill-opacity:1;fill-rule:nonzero;stroke:none"
                     transform="matrix(1,0,0,-1,462.242,210.206)"><tspan
                       id="tspan80"
                       y="0"
                       x="0 10.515794 16.652397">Net</tspan><tspan
                       id="tspan82"
                       y="13.948"
                       x="-13.529 -6.0570002 1.415 7.953299 15.425299 21.402899 25.138899 31.677198">fnancial</tspan><tspan
                       id="tspan84"
                       y="27.895"
                       x="-5.9679999 0.57029885 5.8748212 11.179343 17.315947 22.546347">assets</tspan></text>
<g
                     transform="translate(442.736,196.059)"
                     id="g88" /></g></g><g
                 transform="translate(-392.507,-25.98)"
                 id="g90" /></g></g><g
             id="g92"><g
               id="g94"><path
                 id="path96"
                 style="fill:#050064;fill-opacity:1;fill-rule:nonzero;stroke:#4c4c4c;stroke-width:1.24535;stroke-linecap:butt;stroke-linejoin:miter;stroke-miterlimit:10;stroke-dasharray:none;stroke-opacity:1"
                 d="m 45.62181,-112.76456 h -91.24362 c -2.20094,0 -3.98511,-1.78416 -3.98511,-3.9851 v -48.72341 c 0,-2.20094 1.78417,-3.98511 3.98511,-3.98511 h 91.24362 c 2.20094,0 3.98511,1.78417 3.98511,3.98511 v 48.72341 c 0,2.20094 -1.78417,3.9851 -3.98511,3.9851 z" /></g><g
               transform="translate(-41.154,-144.099)"
               id="g98"><g
                 id="g100"><g
                   transform="translate(-9.075,-25.98)"
                   id="g102"><text
                     id="text108"
                     style="font-variant:normal;font-weight:normal;font-size:11.9552002px;font-family:CMBX12;-inkscape-font-specification:CMBX12;writing-mode:lr-tb;fill:#ffffff;fill-opacity:1;fill-rule:nonzero;stroke:none"
                     transform="matrix(1,0,0,-1,28.654,33.153)"><tspan
                       id="tspan104"
                       y="0"
                       x="0 7.4720001 13.639688 20.73749 24.47349 31.94549">Saving</tspan><tspan
                       id="tspan106"
                       y="13.947"
                       x="-13.601 -6.1290002 -0.63558561 5.5010185 9.6100206 15.746625 21.24004 27.376644 34.848644 40.826244 46.962849">preferences</tspan></text>
<g
                     transform="translate(9.075,25.98)"
                     id="g110" /></g></g><g
                 transform="translate(41.154,144.099)"
                 id="g112" /></g></g><g
             id="g114"><g
               id="g116"><path
                 id="path118"
                 style="fill:#050064;fill-opacity:1;fill-rule:nonzero;stroke:#4c4c4c;stroke-width:1.24535;stroke-linecap:butt;stroke-linejoin:miter;stroke-miterlimit:10;stroke-dasharray:none;stroke-opacity:1"
                 d="m 258.22289,-112.76456 h -91.24366 c -2.20094,0 -3.9851,-1.78416 -3.9851,-3.9851 v -48.72341 c 0,-2.20094 1.78416,-3.98511 3.9851,-3.98511 h 91.24366 c 2.20094,0 3.98511,1.78417 3.98511,3.98511 v 48.72341 c 0,2.20094 -1.78417,3.9851 -3.98511,3.9851 z" /></g><g
               transform="translate(183.115,-144.099)"
               id="g120"><g
                 id="g122"><g
                   transform="translate(-233.344,-25.98)"
                   id="g124"><text
                     id="text130"
                     style="font-variant:normal;font-weight:normal;font-size:11.9552002px;font-family:CMBX12;-inkscape-font-specification:CMBX12;writing-mode:lr-tb;fill:#ffffff;fill-opacity:1;fill-rule:nonzero;stroke:none"
                     transform="matrix(1,0,0,-1,239.322,33.153)"><tspan
                       id="tspan126"
                       y="0"
                       x="0 5.0092287 12.481229 18.458828 25.183628 36.391628">Income</tspan><tspan
                       id="tspan128"
                       y="13.947"
                       x="15.66 19.396 23.132">...</tspan></text>
<g
                     transform="translate(233.344,25.98)"
                     id="g132" /></g></g><g
                 transform="translate(-183.115,144.099)"
                 id="g134" /></g></g><g
             id="g136"><path
               id="path138"
               style="fill:none;stroke:#4c4c4c;stroke-width:1.24535;stroke-linecap:butt;stroke-linejoin:miter;stroke-miterlimit:10;stroke-dasharray:none;stroke-opacity:1"
               d="M 50.2296,28.96948 H 154.55492" /><g
               id="g140"><g
                 transform="translate(154.55492,28.96948)"
                 id="g142"><g
                   id="g144"><path
                     id="path146"
                     style="fill:#4c4c4c;fill-opacity:1;fill-rule:nonzero;stroke:none"
                     d="M 5.87303,0 C 4.13284,0.32628 1.30511,1.30511 -0.65256,2.44708 V -2.44708 C 1.30511,-1.30511 4.13284,-0.32628 5.87303,0" /></g></g></g></g><g
             id="g148"><path
               id="path150"
               style="fill:none;stroke:#4c4c4c;stroke-width:1.24535;stroke-linecap:butt;stroke-linejoin:miter;stroke-miterlimit:10;stroke-dasharray:none;stroke-opacity:1"
               d="M 264.77415,28.96948 H 369.0995" /><g
               id="g152"><g
                 transform="translate(369.0995,28.96948)"
                 id="g154"><g
                   id="g156"><path
                     id="path158"
                     style="fill:#4c4c4c;fill-opacity:1;fill-rule:nonzero;stroke:none"
                     d="M 5.87303,0 C 4.13284,0.32628 1.30511,1.30511 -0.65256,2.44708 V -2.44708 C 1.30511,-1.30511 4.13284,-0.32628 5.87303,0" /></g></g></g></g><g
             id="g160"><path
               id="path162"
               style="fill:none;stroke:#4c4c4c;stroke-width:1.24535;stroke-linecap:butt;stroke-linejoin:miter;stroke-miterlimit:10;stroke-dasharray:none;stroke-opacity:1"
               d="M 36.17427,-112.14189 171.8858,-3.66661" /><g
               id="g164"><g
                 transform="matrix(0.7811,0.62431,-0.62431,0.7811,171.8858,-3.66661)"
                 id="g166"><g
                   id="g168"><path
                     id="path170"
                     style="fill:#4c4c4c;fill-opacity:1;fill-rule:nonzero;stroke:none"
                     d="M 5.87303,0 C 4.13284,0.32628 1.30511,1.30511 -0.65256,2.44708 V -2.44708 C 1.30511,-1.30511 4.13284,-0.32628 5.87303,0" /></g></g></g></g><g
             id="g172"><path
               id="path174"
               style="fill:none;stroke:#4c4c4c;stroke-width:1.24535;stroke-linecap:butt;stroke-linejoin:miter;stroke-miterlimit:10;stroke-dasharray:none;stroke-opacity:1"
               d="M 50.2296,-138.12254 H 156.49841" /><g
               id="g176"><g
                 transform="translate(156.49841,-138.12254)"
                 id="g178"><g
                   id="g180"><path
                     id="path182"
                     style="fill:#4c4c4c;fill-opacity:1;fill-rule:nonzero;stroke:none"
                     d="M 5.87303,0 C 4.13284,0.32628 1.30511,1.30511 -0.65256,2.44708 V -2.44708 C 1.30511,-1.30511 4.13284,-0.32628 5.87303,0" /></g></g></g></g><g
             id="g184"><path
               id="path186"
               style="fill:none;stroke:#4c4c4c;stroke-width:1.24535;stroke-linecap:butt;stroke-linejoin:miter;stroke-miterlimit:10;stroke-dasharray:none;stroke-opacity:1"
               d="M 56.10263,-144.1002 H 162.37146" /><g
               id="g188"><g
                 transform="rotate(180,28.051315,-72.0501)"
                 id="g190"><g
                   id="g192"><path
                     id="path194"
                     style="fill:#4c4c4c;fill-opacity:1;fill-rule:nonzero;stroke:none"
                     d="M 5.87303,0 C 4.13284,0.32628 1.30511,1.30511 -0.65256,2.44708 V -2.44708 C 1.30511,-1.30511 4.13284,-0.32628 5.87303,0" /></g></g></g></g><g
             id="g196"><path
               id="path198"
               style="fill:none;stroke:#4c4c4c;stroke-width:1.24535;stroke-linecap:butt;stroke-linejoin:miter;stroke-miterlimit:10;stroke-dasharray:none;stroke-opacity:1"
               d="M 50.2296,-121.02444 369.52017,6.76855" /><g
               id="g200"><g
                 transform="matrix(0.92838,0.37157,-0.37157,0.92838,369.52016,6.76854)"
                 id="g202"><g
                   id="g204"><path
                     id="path206"
                     style="fill:#4c4c4c;fill-opacity:1;fill-rule:nonzero;stroke:none"
                     d="M 5.87303,0 C 4.13284,0.32628 1.30511,1.30511 -0.65256,2.44708 V -2.44708 C 1.30511,-1.30511 4.13284,-0.32628 5.87303,0" /></g></g></g></g><g
             id="g208"><path
               id="path210"
               style="fill:none;stroke:#4c4c4c;stroke-width:1.24535;stroke-linecap:butt;stroke-linejoin:miter;stroke-miterlimit:10;stroke-dasharray:none;stroke-opacity:1"
               d="M 248.77533,-112.14189 384.48688,-3.66661" /><g
               id="g212"><g
                 transform="matrix(0.7811,0.62431,-0.62431,0.7811,384.48688,-3.66661)"
                 id="g214"><g
                   id="g216"><path
                     id="path218"
                     style="fill:#4c4c4c;fill-opacity:1;fill-rule:nonzero;stroke:none"
                     d="M 5.87303,0 C 4.13284,0.32628 1.30511,1.30511 -0.65256,2.44708 V -2.44708 C 1.30511,-1.30511 4.13284,-0.32628 5.87303,0" /></g></g></g></g><g
             id="g220"><path
               id="path222"
               style="fill:none;stroke:#4c4c4c;stroke-width:1.24535;stroke-linecap:butt;stroke-linejoin:miter;stroke-miterlimit:10;stroke-dasharray:none;stroke-opacity:1"
               d="M 212.60106,-112.14189 V -5.87303" /><g
               id="g224"><g
                 transform="rotate(90,109.23704,103.36401)"
                 id="g226"><g
                   id="g228"><path
                     id="path230"
                     style="fill:#4c4c4c;fill-opacity:1;fill-rule:nonzero;stroke:none"
                     d="M 5.87303,0 C 4.13284,0.32628 1.30511,1.30511 -0.65256,2.44708 V -2.44708 C 1.30511,-1.30511 4.13284,-0.32628 5.87303,0" /></g></g></g></g><g
             id="g232"><path
               id="path234"
               style="fill:none;stroke:#4c4c4c;stroke-width:1.24535;stroke-linecap:butt;stroke-linejoin:miter;stroke-miterlimit:10;stroke-dasharray:none;stroke-opacity:1"
               d="M 176.42677,-112.14189 40.71526,-3.66661" /><g
               id="g236"><g
                 transform="matrix(-0.7811,0.62431,-0.62431,-0.7811,40.71526,-3.66661)"
                 id="g238"><g
                   id="g240"><path
                     id="path242"
                     style="fill:#4c4c4c;fill-opacity:1;fill-rule:nonzero;stroke:none"
                     d="M 5.87303,0 C 4.13284,0.32628 1.30511,1.30511 -0.65256,2.44708 V -2.44708 C 1.30511,-1.30511 4.13284,-0.32628 5.87303,0" /></g></g></g></g></g></g></g></g></svg>