<?xml version="1.0" encoding="utf-8" standalone="no"?>
<!DOCTYPE svg PUBLIC "-//W3C//DTD SVG 1.1//EN"
  "http://www.w3.org/Graphics/SVG/1.1/DTD/svg11.dtd">
<svg xmlns:xlink="http://www.w3.org/1999/xlink" width="469.195033pt" height="353.99952pt" viewBox="0 0 469.195033 353.99952" xmlns="http://www.w3.org/2000/svg" version="1.1">
 <metadata>
  <rdf:RDF xmlns:dc="http://purl.org/dc/elements/1.1/" xmlns:cc="http://creativecommons.org/ns#" xmlns:rdf="http://www.w3.org/1999/02/22-rdf-syntax-ns#">
   <cc:Work>
    <dc:type rdf:resource="http://purl.org/dc/dcmitype/StillImage"/>
    <dc:date>2024-03-25T20:17:10.565384</dc:date>
    <dc:format>image/svg+xml</dc:format>
    <dc:creator>
     <cc:Agent>
      <dc:title>Matplotlib v3.8.3, https://matplotlib.org/</dc:title>
     </cc:Agent>
    </dc:creator>
   </cc:Work>
  </rdf:RDF>
 </metadata>
 <defs>
  <style type="text/css">*{stroke-linejoin: round; stroke-linecap: butt}</style>
 </defs>
 <g id="figure_1">
  <g id="patch_1">
   <path d="M 0 353.99952 
L 469.195033 353.99952 
L 469.195033 0 
L 0 0 
z
" style="fill: #ffffff"/>
  </g>
  <g id="axes_1">
   <g id="patch_2">
    <path d="M 43.78125 312.921395 
L 396.459403 312.921395 
L 396.459403 7.2 
L 43.78125 7.2 
z
" style="fill: #ffffff"/>
   </g>
   <g id="patch_3">
    <path d="M 117.982157 312.921395 
L 124.646362 312.921395 
L 124.646362 310.009763 
L 117.982157 310.009763 
z
" clip-path="url(#p101132714a)" style="fill: #8de5a1; fill-opacity: 0.75; stroke: #12711c; stroke-linejoin: miter"/>
   </g>
   <g id="patch_4">
    <path d="M 124.646362 312.921395 
L 131.310568 312.921395 
L 131.310568 312.921395 
L 124.646362 312.921395 
z
" clip-path="url(#p101132714a)" style="fill: #8de5a1; fill-opacity: 0.75; stroke: #12711c; stroke-linejoin: miter"/>
   </g>
   <g id="patch_5">
    <path d="M 131.310568 312.921395 
L 137.974773 312.921395 
L 137.974773 310.009763 
L 131.310568 310.009763 
z
" clip-path="url(#p101132714a)" style="fill: #8de5a1; fill-opacity: 0.75; stroke: #12711c; stroke-linejoin: miter"/>
   </g>
   <g id="patch_6">
    <path d="M 137.974773 312.921395 
L 144.638978 312.921395 
L 144.638978 310.009763 
L 137.974773 310.009763 
z
" clip-path="url(#p101132714a)" style="fill: #8de5a1; fill-opacity: 0.75; stroke: #12711c; stroke-linejoin: miter"/>
   </g>
   <g id="patch_7">
    <path d="M 144.638978 312.921395 
L 151.303184 312.921395 
L 151.303184 304.186498 
L 144.638978 304.186498 
z
" clip-path="url(#p101132714a)" style="fill: #8de5a1; fill-opacity: 0.75; stroke: #12711c; stroke-linejoin: miter"/>
   </g>
   <g id="patch_8">
    <path d="M 151.303184 312.921395 
L 157.967389 312.921395 
L 157.967389 295.451601 
L 151.303184 295.451601 
z
" clip-path="url(#p101132714a)" style="fill: #8de5a1; fill-opacity: 0.75; stroke: #12711c; stroke-linejoin: miter"/>
   </g>
   <g id="patch_9">
    <path d="M 157.967389 312.921395 
L 164.631594 312.921395 
L 164.631594 269.24691 
L 157.967389 269.24691 
z
" clip-path="url(#p101132714a)" style="fill: #8de5a1; fill-opacity: 0.75; stroke: #12711c; stroke-linejoin: miter"/>
   </g>
   <g id="patch_10">
    <path d="M 164.631594 312.921395 
L 171.295799 312.921395 
L 171.295799 286.716704 
L 164.631594 286.716704 
z
" clip-path="url(#p101132714a)" style="fill: #8de5a1; fill-opacity: 0.75; stroke: #12711c; stroke-linejoin: miter"/>
   </g>
   <g id="patch_11">
    <path d="M 171.295799 312.921395 
L 177.960005 312.921395 
L 177.960005 254.688748 
L 171.295799 254.688748 
z
" clip-path="url(#p101132714a)" style="fill: #8de5a1; fill-opacity: 0.75; stroke: #12711c; stroke-linejoin: miter"/>
   </g>
   <g id="patch_12">
    <path d="M 177.960005 312.921395 
L 184.62421 312.921395 
L 184.62421 199.367734 
L 177.960005 199.367734 
z
" clip-path="url(#p101132714a)" style="fill: #8de5a1; fill-opacity: 0.75; stroke: #12711c; stroke-linejoin: miter"/>
   </g>
   <g id="patch_13">
    <path d="M 184.62421 312.921395 
L 191.288415 312.921395 
L 191.288415 178.986308 
L 184.62421 178.986308 
z
" clip-path="url(#p101132714a)" style="fill: #8de5a1; fill-opacity: 0.75; stroke: #12711c; stroke-linejoin: miter"/>
   </g>
   <g id="patch_14">
    <path d="M 191.288415 312.921395 
L 197.95262 312.921395 
L 197.95262 126.576926 
L 191.288415 126.576926 
z
" clip-path="url(#p101132714a)" style="fill: #8de5a1; fill-opacity: 0.75; stroke: #12711c; stroke-linejoin: miter"/>
   </g>
   <g id="patch_15">
    <path d="M 197.95262 312.921395 
L 204.616826 312.921395 
L 204.616826 152.781617 
L 197.95262 152.781617 
z
" clip-path="url(#p101132714a)" style="fill: #8de5a1; fill-opacity: 0.75; stroke: #12711c; stroke-linejoin: miter"/>
   </g>
   <g id="patch_16">
    <path d="M 204.616826 312.921395 
L 211.281031 312.921395 
L 211.281031 100.372235 
L 204.616826 100.372235 
z
" clip-path="url(#p101132714a)" style="fill: #8de5a1; fill-opacity: 0.75; stroke: #12711c; stroke-linejoin: miter"/>
   </g>
   <g id="patch_17">
    <path d="M 211.281031 312.921395 
L 217.945236 312.921395 
L 217.945236 85.814073 
L 211.281031 85.814073 
z
" clip-path="url(#p101132714a)" style="fill: #8de5a1; fill-opacity: 0.75; stroke: #12711c; stroke-linejoin: miter"/>
   </g>
   <g id="patch_18">
    <path d="M 217.945236 312.921395 
L 224.609441 312.921395 
L 224.609441 27.581426 
L 217.945236 27.581426 
z
" clip-path="url(#p101132714a)" style="fill: #8de5a1; fill-opacity: 0.75; stroke: #12711c; stroke-linejoin: miter"/>
   </g>
   <g id="patch_19">
    <path d="M 224.609441 312.921395 
L 231.273647 312.921395 
L 231.273647 21.758162 
L 224.609441 21.758162 
z
" clip-path="url(#p101132714a)" style="fill: #8de5a1; fill-opacity: 0.75; stroke: #12711c; stroke-linejoin: miter"/>
   </g>
   <g id="patch_20">
    <path d="M 231.273647 312.921395 
L 237.937852 312.921395 
L 237.937852 50.874485 
L 231.273647 50.874485 
z
" clip-path="url(#p101132714a)" style="fill: #8de5a1; fill-opacity: 0.75; stroke: #12711c; stroke-linejoin: miter"/>
   </g>
   <g id="patch_21">
    <path d="M 237.937852 312.921395 
L 244.602057 312.921395 
L 244.602057 94.54897 
L 237.937852 94.54897 
z
" clip-path="url(#p101132714a)" style="fill: #8de5a1; fill-opacity: 0.75; stroke: #12711c; stroke-linejoin: miter"/>
   </g>
   <g id="patch_22">
    <path d="M 244.602057 312.921395 
L 251.266263 312.921395 
L 251.266263 152.781617 
L 244.602057 152.781617 
z
" clip-path="url(#p101132714a)" style="fill: #8de5a1; fill-opacity: 0.75; stroke: #12711c; stroke-linejoin: miter"/>
   </g>
   <g id="patch_23">
    <path d="M 251.266263 312.921395 
L 257.930468 312.921395 
L 257.930468 196.456102 
L 251.266263 196.456102 
z
" clip-path="url(#p101132714a)" style="fill: #8de5a1; fill-opacity: 0.75; stroke: #12711c; stroke-linejoin: miter"/>
   </g>
   <g id="patch_24">
    <path d="M 257.930468 312.921395 
L 264.594673 312.921395 
L 264.594673 184.809572 
L 257.930468 184.809572 
z
" clip-path="url(#p101132714a)" style="fill: #8de5a1; fill-opacity: 0.75; stroke: #12711c; stroke-linejoin: miter"/>
   </g>
   <g id="patch_25">
    <path d="M 264.594673 312.921395 
L 271.258878 312.921395 
L 271.258878 211.014263 
L 264.594673 211.014263 
z
" clip-path="url(#p101132714a)" style="fill: #8de5a1; fill-opacity: 0.75; stroke: #12711c; stroke-linejoin: miter"/>
   </g>
   <g id="patch_26">
    <path d="M 271.258878 312.921395 
L 277.923084 312.921395 
L 277.923084 257.600381 
L 271.258878 257.600381 
z
" clip-path="url(#p101132714a)" style="fill: #8de5a1; fill-opacity: 0.75; stroke: #12711c; stroke-linejoin: miter"/>
   </g>
   <g id="patch_27">
    <path d="M 277.923084 312.921395 
L 284.587289 312.921395 
L 284.587289 286.716704 
L 277.923084 286.716704 
z
" clip-path="url(#p101132714a)" style="fill: #8de5a1; fill-opacity: 0.75; stroke: #12711c; stroke-linejoin: miter"/>
   </g>
   <g id="patch_28">
    <path d="M 284.587289 312.921395 
L 291.251494 312.921395 
L 291.251494 280.893439 
L 284.587289 280.893439 
z
" clip-path="url(#p101132714a)" style="fill: #8de5a1; fill-opacity: 0.75; stroke: #12711c; stroke-linejoin: miter"/>
   </g>
   <g id="patch_29">
    <path d="M 291.251494 312.921395 
L 297.915699 312.921395 
L 297.915699 289.628336 
L 291.251494 289.628336 
z
" clip-path="url(#p101132714a)" style="fill: #8de5a1; fill-opacity: 0.75; stroke: #12711c; stroke-linejoin: miter"/>
   </g>
   <g id="patch_30">
    <path d="M 297.915699 312.921395 
L 304.579905 312.921395 
L 304.579905 307.09813 
L 297.915699 307.09813 
z
" clip-path="url(#p101132714a)" style="fill: #8de5a1; fill-opacity: 0.75; stroke: #12711c; stroke-linejoin: miter"/>
   </g>
   <g id="patch_31">
    <path d="M 304.579905 312.921395 
L 311.24411 312.921395 
L 311.24411 307.09813 
L 304.579905 307.09813 
z
" clip-path="url(#p101132714a)" style="fill: #8de5a1; fill-opacity: 0.75; stroke: #12711c; stroke-linejoin: miter"/>
   </g>
   <g id="patch_32">
    <path d="M 311.24411 312.921395 
L 317.908315 312.921395 
L 317.908315 310.009763 
L 311.24411 310.009763 
z
" clip-path="url(#p101132714a)" style="fill: #8de5a1; fill-opacity: 0.75; stroke: #12711c; stroke-linejoin: miter"/>
   </g>
   <g id="matplotlib.axis_1">
    <g id="xtick_1">
     <g id="line2d_1">
      <defs>
       <path id="mf0558d99f9" d="M 0 0 
L 0 3.5 
" style="stroke: #000000; stroke-width: 0.8"/>
      </defs>
      <g>
       <use xlink:href="#mf0558d99f9" x="43.78125" y="312.921395" style="stroke: #000000; stroke-width: 0.8"/>
      </g>
     </g>
     <g id="text_1">
      <!-- −6 -->
      <g transform="translate(36.410156 327.519833) scale(0.1 -0.1)">
       <defs>
        <path id="DejaVuSans-2212" d="M 678 2272 
L 4684 2272 
L 4684 1741 
L 678 1741 
L 678 2272 
z
" transform="scale(0.015625)"/>
        <path id="DejaVuSans-36" d="M 2113 2584 
Q 1688 2584 1439 2293 
Q 1191 2003 1191 1497 
Q 1191 994 1439 701 
Q 1688 409 2113 409 
Q 2538 409 2786 701 
Q 3034 994 3034 1497 
Q 3034 2003 2786 2293 
Q 2538 2584 2113 2584 
z
M 3366 4563 
L 3366 3988 
Q 3128 4100 2886 4159 
Q 2644 4219 2406 4219 
Q 1781 4219 1451 3797 
Q 1122 3375 1075 2522 
Q 1259 2794 1537 2939 
Q 1816 3084 2150 3084 
Q 2853 3084 3261 2657 
Q 3669 2231 3669 1497 
Q 3669 778 3244 343 
Q 2819 -91 2113 -91 
Q 1303 -91 875 529 
Q 447 1150 447 2328 
Q 447 3434 972 4092 
Q 1497 4750 2381 4750 
Q 2619 4750 2861 4703 
Q 3103 4656 3366 4563 
z
" transform="scale(0.015625)"/>
       </defs>
       <use xlink:href="#DejaVuSans-2212"/>
       <use xlink:href="#DejaVuSans-36" x="83.789062"/>
      </g>
     </g>
    </g>
    <g id="xtick_2">
     <g id="line2d_2">
      <g>
       <use xlink:href="#mf0558d99f9" x="102.560942" y="312.921395" style="stroke: #000000; stroke-width: 0.8"/>
      </g>
     </g>
     <g id="text_2">
      <!-- −4 -->
      <g transform="translate(95.189848 327.519833) scale(0.1 -0.1)">
       <defs>
        <path id="DejaVuSans-34" d="M 2419 4116 
L 825 1625 
L 2419 1625 
L 2419 4116 
z
M 2253 4666 
L 3047 4666 
L 3047 1625 
L 3713 1625 
L 3713 1100 
L 3047 1100 
L 3047 0 
L 2419 0 
L 2419 1100 
L 313 1100 
L 313 1709 
L 2253 4666 
z
" transform="scale(0.015625)"/>
       </defs>
       <use xlink:href="#DejaVuSans-2212"/>
       <use xlink:href="#DejaVuSans-34" x="83.789062"/>
      </g>
     </g>
    </g>
    <g id="xtick_3">
     <g id="line2d_3">
      <g>
       <use xlink:href="#mf0558d99f9" x="161.340634" y="312.921395" style="stroke: #000000; stroke-width: 0.8"/>
      </g>
     </g>
     <g id="text_3">
      <!-- −2 -->
      <g transform="translate(153.96954 327.519833) scale(0.1 -0.1)">
       <defs>
        <path id="DejaVuSans-32" d="M 1228 531 
L 3431 531 
L 3431 0 
L 469 0 
L 469 531 
Q 828 903 1448 1529 
Q 2069 2156 2228 2338 
Q 2531 2678 2651 2914 
Q 2772 3150 2772 3378 
Q 2772 3750 2511 3984 
Q 2250 4219 1831 4219 
Q 1534 4219 1204 4116 
Q 875 4013 500 3803 
L 500 4441 
Q 881 4594 1212 4672 
Q 1544 4750 1819 4750 
Q 2544 4750 2975 4387 
Q 3406 4025 3406 3419 
Q 3406 3131 3298 2873 
Q 3191 2616 2906 2266 
Q 2828 2175 2409 1742 
Q 1991 1309 1228 531 
z
" transform="scale(0.015625)"/>
       </defs>
       <use xlink:href="#DejaVuSans-2212"/>
       <use xlink:href="#DejaVuSans-32" x="83.789062"/>
      </g>
     </g>
    </g>
    <g id="xtick_4">
     <g id="line2d_4">
      <g>
       <use xlink:href="#mf0558d99f9" x="220.120326" y="312.921395" style="stroke: #000000; stroke-width: 0.8"/>
      </g>
     </g>
     <g id="text_4">
      <!-- 0 -->
      <g transform="translate(216.939076 327.519833) scale(0.1 -0.1)">
       <defs>
        <path id="DejaVuSans-30" d="M 2034 4250 
Q 1547 4250 1301 3770 
Q 1056 3291 1056 2328 
Q 1056 1369 1301 889 
Q 1547 409 2034 409 
Q 2525 409 2770 889 
Q 3016 1369 3016 2328 
Q 3016 3291 2770 3770 
Q 2525 4250 2034 4250 
z
M 2034 4750 
Q 2819 4750 3233 4129 
Q 3647 3509 3647 2328 
Q 3647 1150 3233 529 
Q 2819 -91 2034 -91 
Q 1250 -91 836 529 
Q 422 1150 422 2328 
Q 422 3509 836 4129 
Q 1250 4750 2034 4750 
z
" transform="scale(0.015625)"/>
       </defs>
       <use xlink:href="#DejaVuSans-30"/>
      </g>
     </g>
    </g>
    <g id="xtick_5">
     <g id="line2d_5">
      <g>
       <use xlink:href="#mf0558d99f9" x="278.900018" y="312.921395" style="stroke: #000000; stroke-width: 0.8"/>
      </g>
     </g>
     <g id="text_5">
      <!-- 2 -->
      <g transform="translate(275.718768 327.519833) scale(0.1 -0.1)">
       <use xlink:href="#DejaVuSans-32"/>
      </g>
     </g>
    </g>
    <g id="xtick_6">
     <g id="line2d_6">
      <g>
       <use xlink:href="#mf0558d99f9" x="337.679711" y="312.921395" style="stroke: #000000; stroke-width: 0.8"/>
      </g>
     </g>
     <g id="text_6">
      <!-- 4 -->
      <g transform="translate(334.498461 327.519833) scale(0.1 -0.1)">
       <use xlink:href="#DejaVuSans-34"/>
      </g>
     </g>
    </g>
    <g id="xtick_7">
     <g id="line2d_7">
      <g>
       <use xlink:href="#mf0558d99f9" x="396.459403" y="312.921395" style="stroke: #000000; stroke-width: 0.8"/>
      </g>
     </g>
     <g id="text_7">
      <!-- 6 -->
      <g transform="translate(393.278153 327.519833) scale(0.1 -0.1)">
       <use xlink:href="#DejaVuSans-36"/>
      </g>
     </g>
    </g>
    <g id="text_8">
     <!-- $(\hat{\theta}_0 - \theta_0)/\hat{\sigma}$ -->
     <g transform="translate(194.320326 344.719832) scale(0.1 -0.1)">
      <defs>
       <path id="DejaVuSans-28" d="M 1984 4856 
Q 1566 4138 1362 3434 
Q 1159 2731 1159 2009 
Q 1159 1288 1364 580 
Q 1569 -128 1984 -844 
L 1484 -844 
Q 1016 -109 783 600 
Q 550 1309 550 2009 
Q 550 2706 781 3412 
Q 1013 4119 1484 4856 
L 1984 4856 
z
" transform="scale(0.015625)"/>
       <path id="DejaVuSans-302" d="M -1831 5119 
L -1369 5119 
L -603 3944 
L -1038 3944 
L -1600 4709 
L -2163 3944 
L -2597 3944 
L -1831 5119 
z
M -1600 3584 
L -1600 3584 
z
" transform="scale(0.015625)"/>
       <path id="DejaVuSans-Oblique-3b8" d="M 2913 2219 
L 925 2219 
Q 791 1284 928 888 
Q 1100 400 1566 400 
Q 2034 400 2391 891 
Q 2703 1322 2913 2219 
z
M 3009 2750 
Q 3094 3638 2984 3950 
Q 2813 4444 2353 4444 
Q 1875 4444 1525 3956 
Q 1250 3563 1034 2750 
L 3009 2750 
z
M 2444 4913 
Q 3194 4913 3494 4250 
Q 3794 3591 3566 2422 
Q 3341 1256 2781 594 
Q 2225 -72 1475 -72 
Q 722 -72 425 594 
Q 128 1256 353 2422 
Q 581 3591 1134 4250 
Q 1691 4913 2444 4913 
z
" transform="scale(0.015625)"/>
       <path id="DejaVuSans-29" d="M 513 4856 
L 1013 4856 
Q 1481 4119 1714 3412 
Q 1947 2706 1947 2009 
Q 1947 1309 1714 600 
Q 1481 -109 1013 -844 
L 513 -844 
Q 928 -128 1133 580 
Q 1338 1288 1338 2009 
Q 1338 2731 1133 3434 
Q 928 4138 513 4856 
z
" transform="scale(0.015625)"/>
       <path id="DejaVuSans-2f" d="M 1625 4666 
L 2156 4666 
L 531 -594 
L 0 -594 
L 1625 4666 
z
" transform="scale(0.015625)"/>
       <path id="DejaVuSans-Oblique-3c3" d="M 2219 3044 
Q 1744 3044 1422 2700 
Q 1081 2341 969 1747 
Q 844 1119 1044 756 
Q 1241 397 1706 397 
Q 2166 397 2503 759 
Q 2844 1122 2966 1747 
Q 3075 2319 2881 2700 
Q 2700 3044 2219 3044 
z
M 2309 3503 
L 4219 3500 
L 4106 2925 
L 3463 2925 
Q 3706 2438 3575 1747 
Q 3406 888 2884 400 
Q 2359 -91 1609 -91 
Q 856 -91 525 400 
Q 194 888 363 1747 
Q 528 2609 1050 3097 
Q 1484 3503 2309 3503 
z
" transform="scale(0.015625)"/>
      </defs>
      <use xlink:href="#DejaVuSans-28" transform="translate(0 0.75)"/>
      <use xlink:href="#DejaVuSans-302" transform="translate(101.887207 34.015625)"/>
      <use xlink:href="#DejaVuSans-Oblique-3b8" transform="translate(39.013672 0.75)"/>
      <use xlink:href="#DejaVuSans-30" transform="translate(101.152344 -15.65625) scale(0.7)"/>
      <use xlink:href="#DejaVuSans-2212" transform="translate(167.905273 0.75)"/>
      <use xlink:href="#DejaVuSans-Oblique-3b8" transform="translate(271.176758 0.75)"/>
      <use xlink:href="#DejaVuSans-30" transform="translate(332.358398 -15.65625) scale(0.7)"/>
      <use xlink:href="#DejaVuSans-29" transform="translate(379.628906 0.75)"/>
      <use xlink:href="#DejaVuSans-2f" transform="translate(418.642578 0.75)"/>
      <use xlink:href="#DejaVuSans-302" transform="translate(516.756836 11.984375)"/>
      <use xlink:href="#DejaVuSans-Oblique-3c3" transform="translate(452.333984 0.75)"/>
     </g>
    </g>
   </g>
   <g id="matplotlib.axis_2">
    <g id="ytick_1">
     <g id="line2d_8">
      <defs>
       <path id="m268b7d4ebb" d="M 0 0 
L -3.5 0 
" style="stroke: #000000; stroke-width: 0.8"/>
      </defs>
      <g>
       <use xlink:href="#m268b7d4ebb" x="43.78125" y="312.921395" style="stroke: #000000; stroke-width: 0.8"/>
      </g>
     </g>
     <g id="text_9">
      <!-- 0.0 -->
      <g transform="translate(20.878125 316.720614) scale(0.1 -0.1)">
       <defs>
        <path id="DejaVuSans-2e" d="M 684 794 
L 1344 794 
L 1344 0 
L 684 0 
L 684 794 
z
" transform="scale(0.015625)"/>
       </defs>
       <use xlink:href="#DejaVuSans-30"/>
       <use xlink:href="#DejaVuSans-2e" x="63.623047"/>
       <use xlink:href="#DejaVuSans-30" x="95.410156"/>
      </g>
     </g>
    </g>
    <g id="ytick_2">
     <g id="line2d_9">
      <g>
       <use xlink:href="#m268b7d4ebb" x="43.78125" y="246.89956" style="stroke: #000000; stroke-width: 0.8"/>
      </g>
     </g>
     <g id="text_10">
      <!-- 0.1 -->
      <g transform="translate(20.878125 250.698779) scale(0.1 -0.1)">
       <defs>
        <path id="DejaVuSans-31" d="M 794 531 
L 1825 531 
L 1825 4091 
L 703 3866 
L 703 4441 
L 1819 4666 
L 2450 4666 
L 2450 531 
L 3481 531 
L 3481 0 
L 794 0 
L 794 531 
z
" transform="scale(0.015625)"/>
       </defs>
       <use xlink:href="#DejaVuSans-30"/>
       <use xlink:href="#DejaVuSans-2e" x="63.623047"/>
       <use xlink:href="#DejaVuSans-31" x="95.410156"/>
      </g>
     </g>
    </g>
    <g id="ytick_3">
     <g id="line2d_10">
      <g>
       <use xlink:href="#m268b7d4ebb" x="43.78125" y="180.877726" style="stroke: #000000; stroke-width: 0.8"/>
      </g>
     </g>
     <g id="text_11">
      <!-- 0.2 -->
      <g transform="translate(20.878125 184.676945) scale(0.1 -0.1)">
       <use xlink:href="#DejaVuSans-30"/>
       <use xlink:href="#DejaVuSans-2e" x="63.623047"/>
       <use xlink:href="#DejaVuSans-32" x="95.410156"/>
      </g>
     </g>
    </g>
    <g id="ytick_4">
     <g id="line2d_11">
      <g>
       <use xlink:href="#m268b7d4ebb" x="43.78125" y="114.855891" style="stroke: #000000; stroke-width: 0.8"/>
      </g>
     </g>
     <g id="text_12">
      <!-- 0.3 -->
      <g transform="translate(20.878125 118.65511) scale(0.1 -0.1)">
       <defs>
        <path id="DejaVuSans-33" d="M 2597 2516 
Q 3050 2419 3304 2112 
Q 3559 1806 3559 1356 
Q 3559 666 3084 287 
Q 2609 -91 1734 -91 
Q 1441 -91 1130 -33 
Q 819 25 488 141 
L 488 750 
Q 750 597 1062 519 
Q 1375 441 1716 441 
Q 2309 441 2620 675 
Q 2931 909 2931 1356 
Q 2931 1769 2642 2001 
Q 2353 2234 1838 2234 
L 1294 2234 
L 1294 2753 
L 1863 2753 
Q 2328 2753 2575 2939 
Q 2822 3125 2822 3475 
Q 2822 3834 2567 4026 
Q 2313 4219 1838 4219 
Q 1578 4219 1281 4162 
Q 984 4106 628 3988 
L 628 4550 
Q 988 4650 1302 4700 
Q 1616 4750 1894 4750 
Q 2613 4750 3031 4423 
Q 3450 4097 3450 3541 
Q 3450 3153 3228 2886 
Q 3006 2619 2597 2516 
z
" transform="scale(0.015625)"/>
       </defs>
       <use xlink:href="#DejaVuSans-30"/>
       <use xlink:href="#DejaVuSans-2e" x="63.623047"/>
       <use xlink:href="#DejaVuSans-33" x="95.410156"/>
      </g>
     </g>
    </g>
    <g id="ytick_5">
     <g id="line2d_12">
      <g>
       <use xlink:href="#m268b7d4ebb" x="43.78125" y="48.834057" style="stroke: #000000; stroke-width: 0.8"/>
      </g>
     </g>
     <g id="text_13">
      <!-- 0.4 -->
      <g transform="translate(20.878125 52.633276) scale(0.1 -0.1)">
       <use xlink:href="#DejaVuSans-30"/>
       <use xlink:href="#DejaVuSans-2e" x="63.623047"/>
       <use xlink:href="#DejaVuSans-34" x="95.410156"/>
      </g>
     </g>
    </g>
    <g id="text_14">
     <!-- Density -->
     <g transform="translate(14.798438 179.069291) rotate(-90) scale(0.1 -0.1)">
      <defs>
       <path id="DejaVuSans-44" d="M 1259 4147 
L 1259 519 
L 2022 519 
Q 2988 519 3436 956 
Q 3884 1394 3884 2338 
Q 3884 3275 3436 3711 
Q 2988 4147 2022 4147 
L 1259 4147 
z
M 628 4666 
L 1925 4666 
Q 3281 4666 3915 4102 
Q 4550 3538 4550 2338 
Q 4550 1131 3912 565 
Q 3275 0 1925 0 
L 628 0 
L 628 4666 
z
" transform="scale(0.015625)"/>
       <path id="DejaVuSans-65" d="M 3597 1894 
L 3597 1613 
L 953 1613 
Q 991 1019 1311 708 
Q 1631 397 2203 397 
Q 2534 397 2845 478 
Q 3156 559 3463 722 
L 3463 178 
Q 3153 47 2828 -22 
Q 2503 -91 2169 -91 
Q 1331 -91 842 396 
Q 353 884 353 1716 
Q 353 2575 817 3079 
Q 1281 3584 2069 3584 
Q 2775 3584 3186 3129 
Q 3597 2675 3597 1894 
z
M 3022 2063 
Q 3016 2534 2758 2815 
Q 2500 3097 2075 3097 
Q 1594 3097 1305 2825 
Q 1016 2553 972 2059 
L 3022 2063 
z
" transform="scale(0.015625)"/>
       <path id="DejaVuSans-6e" d="M 3513 2113 
L 3513 0 
L 2938 0 
L 2938 2094 
Q 2938 2591 2744 2837 
Q 2550 3084 2163 3084 
Q 1697 3084 1428 2787 
Q 1159 2491 1159 1978 
L 1159 0 
L 581 0 
L 581 3500 
L 1159 3500 
L 1159 2956 
Q 1366 3272 1645 3428 
Q 1925 3584 2291 3584 
Q 2894 3584 3203 3211 
Q 3513 2838 3513 2113 
z
" transform="scale(0.015625)"/>
       <path id="DejaVuSans-73" d="M 2834 3397 
L 2834 2853 
Q 2591 2978 2328 3040 
Q 2066 3103 1784 3103 
Q 1356 3103 1142 2972 
Q 928 2841 928 2578 
Q 928 2378 1081 2264 
Q 1234 2150 1697 2047 
L 1894 2003 
Q 2506 1872 2764 1633 
Q 3022 1394 3022 966 
Q 3022 478 2636 193 
Q 2250 -91 1575 -91 
Q 1294 -91 989 -36 
Q 684 19 347 128 
L 347 722 
Q 666 556 975 473 
Q 1284 391 1588 391 
Q 1994 391 2212 530 
Q 2431 669 2431 922 
Q 2431 1156 2273 1281 
Q 2116 1406 1581 1522 
L 1381 1569 
Q 847 1681 609 1914 
Q 372 2147 372 2553 
Q 372 3047 722 3315 
Q 1072 3584 1716 3584 
Q 2034 3584 2315 3537 
Q 2597 3491 2834 3397 
z
" transform="scale(0.015625)"/>
       <path id="DejaVuSans-69" d="M 603 3500 
L 1178 3500 
L 1178 0 
L 603 0 
L 603 3500 
z
M 603 4863 
L 1178 4863 
L 1178 4134 
L 603 4134 
L 603 4863 
z
" transform="scale(0.015625)"/>
       <path id="DejaVuSans-74" d="M 1172 4494 
L 1172 3500 
L 2356 3500 
L 2356 3053 
L 1172 3053 
L 1172 1153 
Q 1172 725 1289 603 
Q 1406 481 1766 481 
L 2356 481 
L 2356 0 
L 1766 0 
Q 1100 0 847 248 
Q 594 497 594 1153 
L 594 3053 
L 172 3053 
L 172 3500 
L 594 3500 
L 594 4494 
L 1172 4494 
z
" transform="scale(0.015625)"/>
       <path id="DejaVuSans-79" d="M 2059 -325 
Q 1816 -950 1584 -1140 
Q 1353 -1331 966 -1331 
L 506 -1331 
L 506 -850 
L 844 -850 
Q 1081 -850 1212 -737 
Q 1344 -625 1503 -206 
L 1606 56 
L 191 3500 
L 800 3500 
L 1894 763 
L 2988 3500 
L 3597 3500 
L 2059 -325 
z
" transform="scale(0.015625)"/>
      </defs>
      <use xlink:href="#DejaVuSans-44"/>
      <use xlink:href="#DejaVuSans-65" x="77.001953"/>
      <use xlink:href="#DejaVuSans-6e" x="138.525391"/>
      <use xlink:href="#DejaVuSans-73" x="201.904297"/>
      <use xlink:href="#DejaVuSans-69" x="254.003906"/>
      <use xlink:href="#DejaVuSans-74" x="281.787109"/>
      <use xlink:href="#DejaVuSans-79" x="320.996094"/>
     </g>
    </g>
   </g>
   <g id="line2d_13">
    <path d="M 220.120326 312.921395 
L 220.120326 7.2 
" clip-path="url(#p101132714a)" style="fill: none; stroke: #000000; stroke-width: 1.5; stroke-linecap: square"/>
   </g>
   <g id="line2d_14">
    <path d="M 73.171096 312.920413 
L 104.647621 312.804314 
L 113.552745 312.553628 
L 119.460104 312.174388 
L 124.01553 311.666337 
L 127.77743 311.029555 
L 131.039703 310.256535 
L 133.949298 309.341548 
L 136.594384 308.279373 
L 139.063131 307.048486 
L 141.384929 305.641535 
L 143.589167 304.046522 
L 145.734626 302.21703 
L 147.821305 300.142026 
L 149.878594 297.777733 
L 151.906494 295.105134 
L 153.934393 292.060422 
L 155.962292 288.6114 
L 158.019582 284.667041 
L 160.106261 280.176402 
L 162.22233 275.088382 
L 164.397178 269.270487 
L 166.630807 262.650209 
L 168.952604 255.057618 
L 171.362572 246.402132 
L 173.890098 236.484341 
L 176.593964 224.95529 
L 179.532949 211.422128 
L 182.824612 195.184601 
L 186.851021 174.137214 
L 199.753163 105.758053 
L 202.574588 92.525032 
L 204.984556 82.244139 
L 207.100625 74.149765 
L 209.010965 67.692982 
L 210.715576 62.678488 
L 212.273237 58.755401 
L 213.68395 55.773452 
L 214.977103 53.534805 
L 216.152697 51.921613 
L 217.240121 50.794145 
L 218.239376 50.071251 
L 219.150461 49.675759 
L 220.032157 49.533568 
L 220.884462 49.621393 
L 221.736768 49.930458 
L 222.647853 50.504597 
L 223.617718 51.390722 
L 224.675752 52.677416 
L 225.821956 54.442493 
L 227.05633 56.766051 
L 228.408263 59.799778 
L 229.877755 63.655526 
L 231.494197 68.53573 
L 233.286977 74.681037 
L 235.285487 82.363022 
L 237.519115 91.86893 
L 240.076032 103.758872 
L 243.161966 119.222653 
L 247.364714 141.526954 
L 257.180922 193.987055 
L 260.766483 211.702285 
L 263.852417 225.864656 
L 266.673842 237.8001 
L 269.318929 248.044336 
L 271.817066 256.851919 
L 274.227033 264.545988 
L 276.548831 271.224275 
L 278.782459 276.989546 
L 280.986697 282.072172 
L 283.132156 286.471186 
L 285.248225 290.313389 
L 287.334904 293.653359 
L 289.421583 296.582474 
L 291.508262 299.135974 
L 293.624331 301.37779 
L 295.76979 303.329734 
L 297.974029 305.035848 
L 300.266437 306.527347 
L 302.647014 307.811392 
L 305.174541 308.922516 
L 307.907796 309.879296 
L 310.905561 310.6899 
L 314.285393 311.367408 
L 318.164853 311.912169 
L 322.837838 312.33507 
L 328.774587 312.637818 
L 337.209473 312.82721 
L 352.492193 312.911031 
L 367.040167 312.920409 
L 367.040167 312.920409 
" clip-path="url(#p101132714a)" style="fill: none; stroke: #000000; stroke-width: 1.5; stroke-linecap: square"/>
   </g>
   <g id="patch_33">
    <path d="M 43.78125 312.921395 
L 43.78125 7.2 
" style="fill: none; stroke: #000000; stroke-width: 0.8; stroke-linejoin: miter; stroke-linecap: square"/>
   </g>
   <g id="patch_34">
    <path d="M 396.459403 312.921395 
L 396.459403 7.2 
" style="fill: none; stroke: #000000; stroke-width: 0.8; stroke-linejoin: miter; stroke-linecap: square"/>
   </g>
   <g id="patch_35">
    <path d="M 43.78125 312.921395 
L 396.459403 312.921395 
" style="fill: none; stroke: #000000; stroke-width: 0.8; stroke-linejoin: miter; stroke-linecap: square"/>
   </g>
   <g id="patch_36">
    <path d="M 43.78125 7.2 
L 396.459403 7.2 
" style="fill: none; stroke: #000000; stroke-width: 0.8; stroke-linejoin: miter; stroke-linecap: square"/>
   </g>
   <g id="legend_1">
    <g id="patch_37">
     <path d="M 288.477846 44.55625 
L 459.995033 44.55625 
Q 461.995033 44.55625 461.995033 42.55625 
L 461.995033 14.2 
Q 461.995033 12.2 459.995033 12.2 
L 288.477846 12.2 
Q 286.477846 12.2 286.477846 14.2 
L 286.477846 42.55625 
Q 286.477846 44.55625 288.477846 44.55625 
z
" style="fill: #ffffff; opacity: 0.8; stroke: #cccccc; stroke-linejoin: miter"/>
    </g>
    <g id="line2d_15">
     <path d="M 290.477846 20.298437 
L 300.477846 20.298437 
L 310.477846 20.298437 
" style="fill: none; stroke: #000000; stroke-width: 1.5; stroke-linecap: square"/>
    </g>
    <g id="text_15">
     <!-- $\mathcal{N}(0, 1)$ -->
     <g transform="translate(318.477846 23.798437) scale(0.1 -0.1)">
      <defs>
       <path id="STIXNonUnicode-Italic-e23a" d="M 4294 800 
L 4301 800 
Q 5293 4070 5408 4378 
Q 5472 4538 5523 4614 
Q 5830 5088 6253 5088 
Q 6490 5088 6650 4931 
Q 6810 4774 6810 4550 
Q 6810 4378 6720 4272 
Q 6630 4166 6470 4166 
Q 6368 4166 6297 4224 
Q 6227 4282 6198 4349 
Q 6170 4416 6118 4473 
Q 6067 4531 6003 4531 
Q 5939 4531 5881 4508 
Q 5824 4486 5785 4457 
Q 5747 4429 5705 4371 
Q 5664 4314 5638 4275 
Q 5613 4237 5584 4163 
Q 5555 4090 5545 4058 
Q 5536 4026 5510 3952 
Q 5485 3878 5485 3866 
L 4262 -154 
L 4134 -154 
Q 3078 1280 2483 2893 
L 2470 2893 
Q 2406 2579 2358 2361 
Q 2310 2144 2214 1792 
Q 2118 1440 2028 1190 
Q 1939 941 1804 653 
Q 1670 365 1529 185 
Q 1389 6 1203 -115 
Q 1018 -237 813 -237 
Q 576 -237 416 -80 
Q 256 77 256 301 
Q 256 474 345 579 
Q 435 685 595 685 
Q 698 685 768 627 
Q 838 570 867 502 
Q 896 435 947 377 
Q 998 320 1062 320 
Q 1222 320 1369 480 
Q 1517 640 1638 928 
Q 1760 1216 1862 1542 
Q 1965 1869 2057 2288 
Q 2150 2707 2214 3033 
Q 2278 3360 2348 3741 
Q 2419 4122 2458 4294 
L 2630 4294 
Q 2682 4166 2874 3680 
Q 3066 3194 3142 3008 
Q 3219 2822 3392 2422 
Q 3565 2022 3683 1798 
Q 3802 1574 3968 1292 
Q 4134 1011 4294 800 
z
" transform="scale(0.015625)"/>
       <path id="DejaVuSans-2c" d="M 750 794 
L 1409 794 
L 1409 256 
L 897 -744 
L 494 -744 
L 750 256 
L 750 794 
z
" transform="scale(0.015625)"/>
      </defs>
      <use xlink:href="#STIXNonUnicode-Italic-e23a" transform="translate(0 0.5)"/>
      <use xlink:href="#DejaVuSans-28" transform="translate(95.699982 0.5)"/>
      <use xlink:href="#DejaVuSans-30" transform="translate(134.713654 0.5)"/>
      <use xlink:href="#DejaVuSans-2c" transform="translate(198.3367 0.5)"/>
      <use xlink:href="#DejaVuSans-31" transform="translate(249.606232 0.5)"/>
      <use xlink:href="#DejaVuSans-29" transform="translate(313.229279 0.5)"/>
     </g>
    </g>
    <g id="patch_38">
     <path d="M 290.477846 38.476562 
L 310.477846 38.476562 
L 310.477846 31.476562 
L 290.477846 31.476562 
z
" style="fill: #8de5a1; fill-opacity: 0.75; stroke: #12711c; stroke-linejoin: miter"/>
    </g>
    <g id="text_16">
     <!-- Double ML with cross-fitting -->
     <g transform="translate(318.477846 38.476562) scale(0.1 -0.1)">
      <defs>
       <path id="DejaVuSans-6f" d="M 1959 3097 
Q 1497 3097 1228 2736 
Q 959 2375 959 1747 
Q 959 1119 1226 758 
Q 1494 397 1959 397 
Q 2419 397 2687 759 
Q 2956 1122 2956 1747 
Q 2956 2369 2687 2733 
Q 2419 3097 1959 3097 
z
M 1959 3584 
Q 2709 3584 3137 3096 
Q 3566 2609 3566 1747 
Q 3566 888 3137 398 
Q 2709 -91 1959 -91 
Q 1206 -91 779 398 
Q 353 888 353 1747 
Q 353 2609 779 3096 
Q 1206 3584 1959 3584 
z
" transform="scale(0.015625)"/>
       <path id="DejaVuSans-75" d="M 544 1381 
L 544 3500 
L 1119 3500 
L 1119 1403 
Q 1119 906 1312 657 
Q 1506 409 1894 409 
Q 2359 409 2629 706 
Q 2900 1003 2900 1516 
L 2900 3500 
L 3475 3500 
L 3475 0 
L 2900 0 
L 2900 538 
Q 2691 219 2414 64 
Q 2138 -91 1772 -91 
Q 1169 -91 856 284 
Q 544 659 544 1381 
z
M 1991 3584 
L 1991 3584 
z
" transform="scale(0.015625)"/>
       <path id="DejaVuSans-62" d="M 3116 1747 
Q 3116 2381 2855 2742 
Q 2594 3103 2138 3103 
Q 1681 3103 1420 2742 
Q 1159 2381 1159 1747 
Q 1159 1113 1420 752 
Q 1681 391 2138 391 
Q 2594 391 2855 752 
Q 3116 1113 3116 1747 
z
M 1159 2969 
Q 1341 3281 1617 3432 
Q 1894 3584 2278 3584 
Q 2916 3584 3314 3078 
Q 3713 2572 3713 1747 
Q 3713 922 3314 415 
Q 2916 -91 2278 -91 
Q 1894 -91 1617 61 
Q 1341 213 1159 525 
L 1159 0 
L 581 0 
L 581 4863 
L 1159 4863 
L 1159 2969 
z
" transform="scale(0.015625)"/>
       <path id="DejaVuSans-6c" d="M 603 4863 
L 1178 4863 
L 1178 0 
L 603 0 
L 603 4863 
z
" transform="scale(0.015625)"/>
       <path id="DejaVuSans-20" transform="scale(0.015625)"/>
       <path id="DejaVuSans-4d" d="M 628 4666 
L 1569 4666 
L 2759 1491 
L 3956 4666 
L 4897 4666 
L 4897 0 
L 4281 0 
L 4281 4097 
L 3078 897 
L 2444 897 
L 1241 4097 
L 1241 0 
L 628 0 
L 628 4666 
z
" transform="scale(0.015625)"/>
       <path id="DejaVuSans-4c" d="M 628 4666 
L 1259 4666 
L 1259 531 
L 3531 531 
L 3531 0 
L 628 0 
L 628 4666 
z
" transform="scale(0.015625)"/>
       <path id="DejaVuSans-77" d="M 269 3500 
L 844 3500 
L 1563 769 
L 2278 3500 
L 2956 3500 
L 3675 769 
L 4391 3500 
L 4966 3500 
L 4050 0 
L 3372 0 
L 2619 2869 
L 1863 0 
L 1184 0 
L 269 3500 
z
" transform="scale(0.015625)"/>
       <path id="DejaVuSans-68" d="M 3513 2113 
L 3513 0 
L 2938 0 
L 2938 2094 
Q 2938 2591 2744 2837 
Q 2550 3084 2163 3084 
Q 1697 3084 1428 2787 
Q 1159 2491 1159 1978 
L 1159 0 
L 581 0 
L 581 4863 
L 1159 4863 
L 1159 2956 
Q 1366 3272 1645 3428 
Q 1925 3584 2291 3584 
Q 2894 3584 3203 3211 
Q 3513 2838 3513 2113 
z
" transform="scale(0.015625)"/>
       <path id="DejaVuSans-63" d="M 3122 3366 
L 3122 2828 
Q 2878 2963 2633 3030 
Q 2388 3097 2138 3097 
Q 1578 3097 1268 2742 
Q 959 2388 959 1747 
Q 959 1106 1268 751 
Q 1578 397 2138 397 
Q 2388 397 2633 464 
Q 2878 531 3122 666 
L 3122 134 
Q 2881 22 2623 -34 
Q 2366 -91 2075 -91 
Q 1284 -91 818 406 
Q 353 903 353 1747 
Q 353 2603 823 3093 
Q 1294 3584 2113 3584 
Q 2378 3584 2631 3529 
Q 2884 3475 3122 3366 
z
" transform="scale(0.015625)"/>
       <path id="DejaVuSans-72" d="M 2631 2963 
Q 2534 3019 2420 3045 
Q 2306 3072 2169 3072 
Q 1681 3072 1420 2755 
Q 1159 2438 1159 1844 
L 1159 0 
L 581 0 
L 581 3500 
L 1159 3500 
L 1159 2956 
Q 1341 3275 1631 3429 
Q 1922 3584 2338 3584 
Q 2397 3584 2469 3576 
Q 2541 3569 2628 3553 
L 2631 2963 
z
" transform="scale(0.015625)"/>
       <path id="DejaVuSans-2d" d="M 313 2009 
L 1997 2009 
L 1997 1497 
L 313 1497 
L 313 2009 
z
" transform="scale(0.015625)"/>
       <path id="DejaVuSans-66" d="M 2375 4863 
L 2375 4384 
L 1825 4384 
Q 1516 4384 1395 4259 
Q 1275 4134 1275 3809 
L 1275 3500 
L 2222 3500 
L 2222 3053 
L 1275 3053 
L 1275 0 
L 697 0 
L 697 3053 
L 147 3053 
L 147 3500 
L 697 3500 
L 697 3744 
Q 697 4328 969 4595 
Q 1241 4863 1831 4863 
L 2375 4863 
z
" transform="scale(0.015625)"/>
       <path id="DejaVuSans-67" d="M 2906 1791 
Q 2906 2416 2648 2759 
Q 2391 3103 1925 3103 
Q 1463 3103 1205 2759 
Q 947 2416 947 1791 
Q 947 1169 1205 825 
Q 1463 481 1925 481 
Q 2391 481 2648 825 
Q 2906 1169 2906 1791 
z
M 3481 434 
Q 3481 -459 3084 -895 
Q 2688 -1331 1869 -1331 
Q 1566 -1331 1297 -1286 
Q 1028 -1241 775 -1147 
L 775 -588 
Q 1028 -725 1275 -790 
Q 1522 -856 1778 -856 
Q 2344 -856 2625 -561 
Q 2906 -266 2906 331 
L 2906 616 
Q 2728 306 2450 153 
Q 2172 0 1784 0 
Q 1141 0 747 490 
Q 353 981 353 1791 
Q 353 2603 747 3093 
Q 1141 3584 1784 3584 
Q 2172 3584 2450 3431 
Q 2728 3278 2906 2969 
L 2906 3500 
L 3481 3500 
L 3481 434 
z
" transform="scale(0.015625)"/>
      </defs>
      <use xlink:href="#DejaVuSans-44"/>
      <use xlink:href="#DejaVuSans-6f" x="77.001953"/>
      <use xlink:href="#DejaVuSans-75" x="138.183594"/>
      <use xlink:href="#DejaVuSans-62" x="201.5625"/>
      <use xlink:href="#DejaVuSans-6c" x="265.039062"/>
      <use xlink:href="#DejaVuSans-65" x="292.822266"/>
      <use xlink:href="#DejaVuSans-20" x="354.345703"/>
      <use xlink:href="#DejaVuSans-4d" x="386.132812"/>
      <use xlink:href="#DejaVuSans-4c" x="472.412109"/>
      <use xlink:href="#DejaVuSans-20" x="528.125"/>
      <use xlink:href="#DejaVuSans-77" x="559.912109"/>
      <use xlink:href="#DejaVuSans-69" x="641.699219"/>
      <use xlink:href="#DejaVuSans-74" x="669.482422"/>
      <use xlink:href="#DejaVuSans-68" x="708.691406"/>
      <use xlink:href="#DejaVuSans-20" x="772.070312"/>
      <use xlink:href="#DejaVuSans-63" x="803.857422"/>
      <use xlink:href="#DejaVuSans-72" x="858.837891"/>
      <use xlink:href="#DejaVuSans-6f" x="897.701172"/>
      <use xlink:href="#DejaVuSans-73" x="958.882812"/>
      <use xlink:href="#DejaVuSans-73" x="1010.982422"/>
      <use xlink:href="#DejaVuSans-2d" x="1063.082031"/>
      <use xlink:href="#DejaVuSans-66" x="1099.166016"/>
      <use xlink:href="#DejaVuSans-69" x="1134.371094"/>
      <use xlink:href="#DejaVuSans-74" x="1162.154297"/>
      <use xlink:href="#DejaVuSans-74" x="1201.363281"/>
      <use xlink:href="#DejaVuSans-69" x="1240.572266"/>
      <use xlink:href="#DejaVuSans-6e" x="1268.355469"/>
      <use xlink:href="#DejaVuSans-67" x="1331.734375"/>
     </g>
    </g>
   </g>
  </g>
 </g>
 <defs>
  <clipPath id="p101132714a">
   <rect x="43.78125" y="7.2" width="352.678153" height="305.721395"/>
  </clipPath>
 </defs>
</svg>
