<?xml version="1.0" encoding="utf-8" standalone="no"?>
<!DOCTYPE svg PUBLIC "-//W3C//DTD SVG 1.1//EN"
  "http://www.w3.org/Graphics/SVG/1.1/DTD/svg11.dtd">
<svg xmlns:xlink="http://www.w3.org/1999/xlink" width="469.199844pt" height="353.99952pt" viewBox="0 0 469.199844 353.99952" xmlns="http://www.w3.org/2000/svg" version="1.1">
 <metadata>
  <rdf:RDF xmlns:dc="http://purl.org/dc/elements/1.1/" xmlns:cc="http://creativecommons.org/ns#" xmlns:rdf="http://www.w3.org/1999/02/22-rdf-syntax-ns#">
   <cc:Work>
    <dc:type rdf:resource="http://purl.org/dc/dcmitype/StillImage"/>
    <dc:date>2025-09-29T11:40:30.672142</dc:date>
    <dc:format>image/svg+xml</dc:format>
    <dc:creator>
     <cc:Agent>
      <dc:title>Matplotlib v3.10.6, https://matplotlib.org/</dc:title>
     </cc:Agent>
    </dc:creator>
   </cc:Work>
  </rdf:RDF>
 </metadata>
 <defs>
  <style type="text/css">*{stroke-linejoin: round; stroke-linecap: butt}</style>
 </defs>
 <g id="figure_1">
  <g id="patch_1">
   <path d="M 0 353.99952 
L 469.199844 353.99952 
L 469.199844 0 
L 0 0 
z
" style="fill: #ffffff"/>
  </g>
  <g id="axes_1">
   <g id="patch_2">
    <path d="M 50.14375 312.921395 
L 397.523828 312.921395 
L 397.523828 7.2 
L 50.14375 7.2 
z
" style="fill: #ffffff"/>
   </g>
   <g id="patch_3">
    <path d="M 63.605643 312.921395 
L 74.396028 312.921395 
L 74.396028 309.005391 
L 63.605643 309.005391 
z
" clip-path="url(#p9eb8e76539)" style="fill: #a1c9f4; fill-opacity: 0.75; stroke: #001c7f; stroke-linejoin: miter"/>
   </g>
   <g id="patch_4">
    <path d="M 74.396028 312.921395 
L 85.186414 312.921395 
L 85.186414 307.047389 
L 74.396028 307.047389 
z
" clip-path="url(#p9eb8e76539)" style="fill: #a1c9f4; fill-opacity: 0.75; stroke: #001c7f; stroke-linejoin: miter"/>
   </g>
   <g id="patch_5">
    <path d="M 85.186414 312.921395 
L 95.9768 312.921395 
L 95.9768 307.047389 
L 85.186414 307.047389 
z
" clip-path="url(#p9eb8e76539)" style="fill: #a1c9f4; fill-opacity: 0.75; stroke: #001c7f; stroke-linejoin: miter"/>
   </g>
   <g id="patch_6">
    <path d="M 95.9768 312.921395 
L 106.767186 312.921395 
L 106.767186 307.047389 
L 95.9768 307.047389 
z
" clip-path="url(#p9eb8e76539)" style="fill: #a1c9f4; fill-opacity: 0.75; stroke: #001c7f; stroke-linejoin: miter"/>
   </g>
   <g id="patch_7">
    <path d="M 106.767186 312.921395 
L 117.557572 312.921395 
L 117.557572 301.173382 
L 106.767186 301.173382 
z
" clip-path="url(#p9eb8e76539)" style="fill: #a1c9f4; fill-opacity: 0.75; stroke: #001c7f; stroke-linejoin: miter"/>
   </g>
   <g id="patch_8">
    <path d="M 117.557572 312.921395 
L 128.347958 312.921395 
L 128.347958 291.383372 
L 117.557572 291.383372 
z
" clip-path="url(#p9eb8e76539)" style="fill: #a1c9f4; fill-opacity: 0.75; stroke: #001c7f; stroke-linejoin: miter"/>
   </g>
   <g id="patch_9">
    <path d="M 128.347958 312.921395 
L 139.138344 312.921395 
L 139.138344 281.593361 
L 128.347958 281.593361 
z
" clip-path="url(#p9eb8e76539)" style="fill: #a1c9f4; fill-opacity: 0.75; stroke: #001c7f; stroke-linejoin: miter"/>
   </g>
   <g id="patch_10">
    <path d="M 139.138344 312.921395 
L 149.92873 312.921395 
L 149.92873 265.929345 
L 139.138344 265.929345 
z
" clip-path="url(#p9eb8e76539)" style="fill: #a1c9f4; fill-opacity: 0.75; stroke: #001c7f; stroke-linejoin: miter"/>
   </g>
   <g id="patch_11">
    <path d="M 149.92873 312.921395 
L 160.719116 312.921395 
L 160.719116 250.265328 
L 149.92873 250.265328 
z
" clip-path="url(#p9eb8e76539)" style="fill: #a1c9f4; fill-opacity: 0.75; stroke: #001c7f; stroke-linejoin: miter"/>
   </g>
   <g id="patch_12">
    <path d="M 160.719116 312.921395 
L 171.509502 312.921395 
L 171.509502 224.8113 
L 160.719116 224.8113 
z
" clip-path="url(#p9eb8e76539)" style="fill: #a1c9f4; fill-opacity: 0.75; stroke: #001c7f; stroke-linejoin: miter"/>
   </g>
   <g id="patch_13">
    <path d="M 171.509502 312.921395 
L 182.299887 312.921395 
L 182.299887 197.399271 
L 171.509502 197.399271 
z
" clip-path="url(#p9eb8e76539)" style="fill: #a1c9f4; fill-opacity: 0.75; stroke: #001c7f; stroke-linejoin: miter"/>
   </g>
   <g id="patch_14">
    <path d="M 182.299887 312.921395 
L 193.090273 312.921395 
L 193.090273 160.197231 
L 182.299887 160.197231 
z
" clip-path="url(#p9eb8e76539)" style="fill: #a1c9f4; fill-opacity: 0.75; stroke: #001c7f; stroke-linejoin: miter"/>
   </g>
   <g id="patch_15">
    <path d="M 193.090273 312.921395 
L 203.880659 312.921395 
L 203.880659 132.785202 
L 193.090273 132.785202 
z
" clip-path="url(#p9eb8e76539)" style="fill: #a1c9f4; fill-opacity: 0.75; stroke: #001c7f; stroke-linejoin: miter"/>
   </g>
   <g id="patch_16">
    <path d="M 203.880659 312.921395 
L 214.671045 312.921395 
L 214.671045 168.02924 
L 203.880659 168.02924 
z
" clip-path="url(#p9eb8e76539)" style="fill: #a1c9f4; fill-opacity: 0.75; stroke: #001c7f; stroke-linejoin: miter"/>
   </g>
   <g id="patch_17">
    <path d="M 214.671045 312.921395 
L 225.461431 312.921395 
L 225.461431 105.373172 
L 214.671045 105.373172 
z
" clip-path="url(#p9eb8e76539)" style="fill: #a1c9f4; fill-opacity: 0.75; stroke: #001c7f; stroke-linejoin: miter"/>
   </g>
   <g id="patch_18">
    <path d="M 225.461431 312.921395 
L 236.251817 312.921395 
L 236.251817 152.365223 
L 225.461431 152.365223 
z
" clip-path="url(#p9eb8e76539)" style="fill: #a1c9f4; fill-opacity: 0.75; stroke: #001c7f; stroke-linejoin: miter"/>
   </g>
   <g id="patch_19">
    <path d="M 236.251817 312.921395 
L 247.042203 312.921395 
L 247.042203 142.575212 
L 236.251817 142.575212 
z
" clip-path="url(#p9eb8e76539)" style="fill: #a1c9f4; fill-opacity: 0.75; stroke: #001c7f; stroke-linejoin: miter"/>
   </g>
   <g id="patch_20">
    <path d="M 247.042203 312.921395 
L 257.832589 312.921395 
L 257.832589 183.693256 
L 247.042203 183.693256 
z
" clip-path="url(#p9eb8e76539)" style="fill: #a1c9f4; fill-opacity: 0.75; stroke: #001c7f; stroke-linejoin: miter"/>
   </g>
   <g id="patch_21">
    <path d="M 257.832589 312.921395 
L 268.622975 312.921395 
L 268.622975 193.483267 
L 257.832589 193.483267 
z
" clip-path="url(#p9eb8e76539)" style="fill: #a1c9f4; fill-opacity: 0.75; stroke: #001c7f; stroke-linejoin: miter"/>
   </g>
   <g id="patch_22">
    <path d="M 268.622975 312.921395 
L 279.413361 312.921395 
L 279.413361 232.643309 
L 268.622975 232.643309 
z
" clip-path="url(#p9eb8e76539)" style="fill: #a1c9f4; fill-opacity: 0.75; stroke: #001c7f; stroke-linejoin: miter"/>
   </g>
   <g id="patch_23">
    <path d="M 279.413361 312.921395 
L 290.203746 312.921395 
L 290.203746 242.433319 
L 279.413361 242.433319 
z
" clip-path="url(#p9eb8e76539)" style="fill: #a1c9f4; fill-opacity: 0.75; stroke: #001c7f; stroke-linejoin: miter"/>
   </g>
   <g id="patch_24">
    <path d="M 290.203746 312.921395 
L 300.994132 312.921395 
L 300.994132 246.349324 
L 290.203746 246.349324 
z
" clip-path="url(#p9eb8e76539)" style="fill: #a1c9f4; fill-opacity: 0.75; stroke: #001c7f; stroke-linejoin: miter"/>
   </g>
   <g id="patch_25">
    <path d="M 300.994132 312.921395 
L 311.784518 312.921395 
L 311.784518 293.341374 
L 300.994132 293.341374 
z
" clip-path="url(#p9eb8e76539)" style="fill: #a1c9f4; fill-opacity: 0.75; stroke: #001c7f; stroke-linejoin: miter"/>
   </g>
   <g id="patch_26">
    <path d="M 311.784518 312.921395 
L 322.574904 312.921395 
L 322.574904 285.509366 
L 311.784518 285.509366 
z
" clip-path="url(#p9eb8e76539)" style="fill: #a1c9f4; fill-opacity: 0.75; stroke: #001c7f; stroke-linejoin: miter"/>
   </g>
   <g id="patch_27">
    <path d="M 322.574904 312.921395 
L 333.36529 312.921395 
L 333.36529 303.131384 
L 322.574904 303.131384 
z
" clip-path="url(#p9eb8e76539)" style="fill: #a1c9f4; fill-opacity: 0.75; stroke: #001c7f; stroke-linejoin: miter"/>
   </g>
   <g id="patch_28">
    <path d="M 333.36529 312.921395 
L 344.155676 312.921395 
L 344.155676 305.089387 
L 333.36529 305.089387 
z
" clip-path="url(#p9eb8e76539)" style="fill: #a1c9f4; fill-opacity: 0.75; stroke: #001c7f; stroke-linejoin: miter"/>
   </g>
   <g id="patch_29">
    <path d="M 344.155676 312.921395 
L 354.946062 312.921395 
L 354.946062 309.005391 
L 344.155676 309.005391 
z
" clip-path="url(#p9eb8e76539)" style="fill: #a1c9f4; fill-opacity: 0.75; stroke: #001c7f; stroke-linejoin: miter"/>
   </g>
   <g id="patch_30">
    <path d="M 354.946062 312.921395 
L 365.736448 312.921395 
L 365.736448 310.963393 
L 354.946062 310.963393 
z
" clip-path="url(#p9eb8e76539)" style="fill: #a1c9f4; fill-opacity: 0.75; stroke: #001c7f; stroke-linejoin: miter"/>
   </g>
   <g id="patch_31">
    <path d="M 365.736448 312.921395 
L 376.526834 312.921395 
L 376.526834 309.005391 
L 365.736448 309.005391 
z
" clip-path="url(#p9eb8e76539)" style="fill: #a1c9f4; fill-opacity: 0.75; stroke: #001c7f; stroke-linejoin: miter"/>
   </g>
   <g id="patch_32">
    <path d="M 376.526834 312.921395 
L 387.31722 312.921395 
L 387.31722 310.963393 
L 376.526834 310.963393 
z
" clip-path="url(#p9eb8e76539)" style="fill: #a1c9f4; fill-opacity: 0.75; stroke: #001c7f; stroke-linejoin: miter"/>
   </g>
   <g id="matplotlib.axis_1">
    <g id="xtick_1">
     <g id="line2d_1">
      <defs>
       <path id="m52832834cd" d="M 0 0 
L 0 3.5 
" style="stroke: #000000; stroke-width: 0.8"/>
      </defs>
      <g>
       <use xlink:href="#m52832834cd" x="50.14375" y="312.921395" style="stroke: #000000; stroke-width: 0.8"/>
      </g>
     </g>
     <g id="text_1">
      <!-- −6 -->
      <g transform="translate(42.772656 327.519832) scale(0.1 -0.1)">
       <defs>
        <path id="DejaVuSans-2212" d="M 678 2272 
L 4684 2272 
L 4684 1741 
L 678 1741 
L 678 2272 
z
" transform="scale(0.015625)"/>
        <path id="DejaVuSans-36" d="M 2113 2584 
Q 1688 2584 1439 2293 
Q 1191 2003 1191 1497 
Q 1191 994 1439 701 
Q 1688 409 2113 409 
Q 2538 409 2786 701 
Q 3034 994 3034 1497 
Q 3034 2003 2786 2293 
Q 2538 2584 2113 2584 
z
M 3366 4563 
L 3366 3988 
Q 3128 4100 2886 4159 
Q 2644 4219 2406 4219 
Q 1781 4219 1451 3797 
Q 1122 3375 1075 2522 
Q 1259 2794 1537 2939 
Q 1816 3084 2150 3084 
Q 2853 3084 3261 2657 
Q 3669 2231 3669 1497 
Q 3669 778 3244 343 
Q 2819 -91 2113 -91 
Q 1303 -91 875 529 
Q 447 1150 447 2328 
Q 447 3434 972 4092 
Q 1497 4750 2381 4750 
Q 2619 4750 2861 4703 
Q 3103 4656 3366 4563 
z
" transform="scale(0.015625)"/>
       </defs>
       <use xlink:href="#DejaVuSans-2212"/>
       <use xlink:href="#DejaVuSans-36" transform="translate(83.789062 0)"/>
      </g>
     </g>
    </g>
    <g id="xtick_2">
     <g id="line2d_2">
      <g>
       <use xlink:href="#m52832834cd" x="108.04043" y="312.921395" style="stroke: #000000; stroke-width: 0.8"/>
      </g>
     </g>
     <g id="text_2">
      <!-- −4 -->
      <g transform="translate(100.669336 327.519832) scale(0.1 -0.1)">
       <defs>
        <path id="DejaVuSans-34" d="M 2419 4116 
L 825 1625 
L 2419 1625 
L 2419 4116 
z
M 2253 4666 
L 3047 4666 
L 3047 1625 
L 3713 1625 
L 3713 1100 
L 3047 1100 
L 3047 0 
L 2419 0 
L 2419 1100 
L 313 1100 
L 313 1709 
L 2253 4666 
z
" transform="scale(0.015625)"/>
       </defs>
       <use xlink:href="#DejaVuSans-2212"/>
       <use xlink:href="#DejaVuSans-34" transform="translate(83.789062 0)"/>
      </g>
     </g>
    </g>
    <g id="xtick_3">
     <g id="line2d_3">
      <g>
       <use xlink:href="#m52832834cd" x="165.937109" y="312.921395" style="stroke: #000000; stroke-width: 0.8"/>
      </g>
     </g>
     <g id="text_3">
      <!-- −2 -->
      <g transform="translate(158.566016 327.519832) scale(0.1 -0.1)">
       <defs>
        <path id="DejaVuSans-32" d="M 1228 531 
L 3431 531 
L 3431 0 
L 469 0 
L 469 531 
Q 828 903 1448 1529 
Q 2069 2156 2228 2338 
Q 2531 2678 2651 2914 
Q 2772 3150 2772 3378 
Q 2772 3750 2511 3984 
Q 2250 4219 1831 4219 
Q 1534 4219 1204 4116 
Q 875 4013 500 3803 
L 500 4441 
Q 881 4594 1212 4672 
Q 1544 4750 1819 4750 
Q 2544 4750 2975 4387 
Q 3406 4025 3406 3419 
Q 3406 3131 3298 2873 
Q 3191 2616 2906 2266 
Q 2828 2175 2409 1742 
Q 1991 1309 1228 531 
z
" transform="scale(0.015625)"/>
       </defs>
       <use xlink:href="#DejaVuSans-2212"/>
       <use xlink:href="#DejaVuSans-32" transform="translate(83.789062 0)"/>
      </g>
     </g>
    </g>
    <g id="xtick_4">
     <g id="line2d_4">
      <g>
       <use xlink:href="#m52832834cd" x="223.833789" y="312.921395" style="stroke: #000000; stroke-width: 0.8"/>
      </g>
     </g>
     <g id="text_4">
      <!-- 0 -->
      <g transform="translate(220.652539 327.519832) scale(0.1 -0.1)">
       <defs>
        <path id="DejaVuSans-30" d="M 2034 4250 
Q 1547 4250 1301 3770 
Q 1056 3291 1056 2328 
Q 1056 1369 1301 889 
Q 1547 409 2034 409 
Q 2525 409 2770 889 
Q 3016 1369 3016 2328 
Q 3016 3291 2770 3770 
Q 2525 4250 2034 4250 
z
M 2034 4750 
Q 2819 4750 3233 4129 
Q 3647 3509 3647 2328 
Q 3647 1150 3233 529 
Q 2819 -91 2034 -91 
Q 1250 -91 836 529 
Q 422 1150 422 2328 
Q 422 3509 836 4129 
Q 1250 4750 2034 4750 
z
" transform="scale(0.015625)"/>
       </defs>
       <use xlink:href="#DejaVuSans-30"/>
      </g>
     </g>
    </g>
    <g id="xtick_5">
     <g id="line2d_5">
      <g>
       <use xlink:href="#m52832834cd" x="281.730469" y="312.921395" style="stroke: #000000; stroke-width: 0.8"/>
      </g>
     </g>
     <g id="text_5">
      <!-- 2 -->
      <g transform="translate(278.549219 327.519832) scale(0.1 -0.1)">
       <use xlink:href="#DejaVuSans-32"/>
      </g>
     </g>
    </g>
    <g id="xtick_6">
     <g id="line2d_6">
      <g>
       <use xlink:href="#m52832834cd" x="339.627148" y="312.921395" style="stroke: #000000; stroke-width: 0.8"/>
      </g>
     </g>
     <g id="text_6">
      <!-- 4 -->
      <g transform="translate(336.445898 327.519832) scale(0.1 -0.1)">
       <use xlink:href="#DejaVuSans-34"/>
      </g>
     </g>
    </g>
    <g id="xtick_7">
     <g id="line2d_7">
      <g>
       <use xlink:href="#m52832834cd" x="397.523828" y="312.921395" style="stroke: #000000; stroke-width: 0.8"/>
      </g>
     </g>
     <g id="text_7">
      <!-- 6 -->
      <g transform="translate(394.342578 327.519832) scale(0.1 -0.1)">
       <use xlink:href="#DejaVuSans-36"/>
      </g>
     </g>
    </g>
    <g id="text_8">
     <!-- $(\hat{\theta}_0 - \theta_0)/\hat{\sigma}$ -->
     <g transform="translate(198.033789 344.719832) scale(0.1 -0.1)">
      <defs>
       <path id="DejaVuSans-28" d="M 1984 4856 
Q 1566 4138 1362 3434 
Q 1159 2731 1159 2009 
Q 1159 1288 1364 580 
Q 1569 -128 1984 -844 
L 1484 -844 
Q 1016 -109 783 600 
Q 550 1309 550 2009 
Q 550 2706 781 3412 
Q 1013 4119 1484 4856 
L 1984 4856 
z
" transform="scale(0.015625)"/>
       <path id="DejaVuSans-302" d="M -1831 5119 
L -1369 5119 
L -603 3944 
L -1038 3944 
L -1600 4709 
L -2163 3944 
L -2597 3944 
L -1831 5119 
z
M -1600 3584 
L -1600 3584 
z
" transform="scale(0.015625)"/>
       <path id="DejaVuSans-Oblique-3b8" d="M 2913 2219 
L 925 2219 
Q 791 1284 928 888 
Q 1100 400 1566 400 
Q 2034 400 2391 891 
Q 2703 1322 2913 2219 
z
M 3009 2750 
Q 3094 3638 2984 3950 
Q 2813 4444 2353 4444 
Q 1875 4444 1525 3956 
Q 1250 3563 1034 2750 
L 3009 2750 
z
M 2444 4913 
Q 3194 4913 3494 4250 
Q 3794 3591 3566 2422 
Q 3341 1256 2781 594 
Q 2225 -72 1475 -72 
Q 722 -72 425 594 
Q 128 1256 353 2422 
Q 581 3591 1134 4250 
Q 1691 4913 2444 4913 
z
" transform="scale(0.015625)"/>
       <path id="DejaVuSans-29" d="M 513 4856 
L 1013 4856 
Q 1481 4119 1714 3412 
Q 1947 2706 1947 2009 
Q 1947 1309 1714 600 
Q 1481 -109 1013 -844 
L 513 -844 
Q 928 -128 1133 580 
Q 1338 1288 1338 2009 
Q 1338 2731 1133 3434 
Q 928 4138 513 4856 
z
" transform="scale(0.015625)"/>
       <path id="DejaVuSans-2f" d="M 1625 4666 
L 2156 4666 
L 531 -594 
L 0 -594 
L 1625 4666 
z
" transform="scale(0.015625)"/>
       <path id="DejaVuSans-Oblique-3c3" d="M 2219 3044 
Q 1744 3044 1422 2700 
Q 1081 2341 969 1747 
Q 844 1119 1044 756 
Q 1241 397 1706 397 
Q 2166 397 2503 759 
Q 2844 1122 2966 1747 
Q 3075 2319 2881 2700 
Q 2700 3044 2219 3044 
z
M 2309 3503 
L 4219 3500 
L 4106 2925 
L 3463 2925 
Q 3706 2438 3575 1747 
Q 3406 888 2884 400 
Q 2359 -91 1609 -91 
Q 856 -91 525 400 
Q 194 888 363 1747 
Q 528 2609 1050 3097 
Q 1484 3503 2309 3503 
z
" transform="scale(0.015625)"/>
      </defs>
      <use xlink:href="#DejaVuSans-28" transform="translate(0 0.75)"/>
      <use xlink:href="#DejaVuSans-302" transform="translate(101.887207 34.015625)"/>
      <use xlink:href="#DejaVuSans-Oblique-3b8" transform="translate(39.013672 0.75)"/>
      <use xlink:href="#DejaVuSans-30" transform="translate(101.152344 -15.65625) scale(0.7)"/>
      <use xlink:href="#DejaVuSans-2212" transform="translate(167.905273 0.75)"/>
      <use xlink:href="#DejaVuSans-Oblique-3b8" transform="translate(271.176758 0.75)"/>
      <use xlink:href="#DejaVuSans-30" transform="translate(332.358398 -15.65625) scale(0.7)"/>
      <use xlink:href="#DejaVuSans-29" transform="translate(379.628906 0.75)"/>
      <use xlink:href="#DejaVuSans-2f" transform="translate(418.642578 0.75)"/>
      <use xlink:href="#DejaVuSans-302" transform="translate(516.756836 11.984375)"/>
      <use xlink:href="#DejaVuSans-Oblique-3c3" transform="translate(452.333984 0.75)"/>
     </g>
    </g>
   </g>
   <g id="matplotlib.axis_2">
    <g id="ytick_1">
     <g id="line2d_8">
      <defs>
       <path id="ma07c378654" d="M 0 0 
L -3.5 0 
" style="stroke: #000000; stroke-width: 0.8"/>
      </defs>
      <g>
       <use xlink:href="#ma07c378654" x="50.14375" y="312.921395" style="stroke: #000000; stroke-width: 0.8"/>
      </g>
     </g>
     <g id="text_9">
      <!-- 0.00 -->
      <g transform="translate(20.878125 316.720614) scale(0.1 -0.1)">
       <defs>
        <path id="DejaVuSans-2e" d="M 684 794 
L 1344 794 
L 1344 0 
L 684 0 
L 684 794 
z
" transform="scale(0.015625)"/>
       </defs>
       <use xlink:href="#DejaVuSans-30"/>
       <use xlink:href="#DejaVuSans-2e" transform="translate(63.623047 0)"/>
       <use xlink:href="#DejaVuSans-30" transform="translate(95.410156 0)"/>
       <use xlink:href="#DejaVuSans-30" transform="translate(159.033203 0)"/>
      </g>
     </g>
    </g>
    <g id="ytick_2">
     <g id="line2d_9">
      <g>
       <use xlink:href="#ma07c378654" x="50.14375" y="276.429495" style="stroke: #000000; stroke-width: 0.8"/>
      </g>
     </g>
     <g id="text_10">
      <!-- 0.05 -->
      <g transform="translate(20.878125 280.228714) scale(0.1 -0.1)">
       <defs>
        <path id="DejaVuSans-35" d="M 691 4666 
L 3169 4666 
L 3169 4134 
L 1269 4134 
L 1269 2991 
Q 1406 3038 1543 3061 
Q 1681 3084 1819 3084 
Q 2600 3084 3056 2656 
Q 3513 2228 3513 1497 
Q 3513 744 3044 326 
Q 2575 -91 1722 -91 
Q 1428 -91 1123 -41 
Q 819 9 494 109 
L 494 744 
Q 775 591 1075 516 
Q 1375 441 1709 441 
Q 2250 441 2565 725 
Q 2881 1009 2881 1497 
Q 2881 1984 2565 2268 
Q 2250 2553 1709 2553 
Q 1456 2553 1204 2497 
Q 953 2441 691 2322 
L 691 4666 
z
" transform="scale(0.015625)"/>
       </defs>
       <use xlink:href="#DejaVuSans-30"/>
       <use xlink:href="#DejaVuSans-2e" transform="translate(63.623047 0)"/>
       <use xlink:href="#DejaVuSans-30" transform="translate(95.410156 0)"/>
       <use xlink:href="#DejaVuSans-35" transform="translate(159.033203 0)"/>
      </g>
     </g>
    </g>
    <g id="ytick_3">
     <g id="line2d_10">
      <g>
       <use xlink:href="#ma07c378654" x="50.14375" y="239.937596" style="stroke: #000000; stroke-width: 0.8"/>
      </g>
     </g>
     <g id="text_11">
      <!-- 0.10 -->
      <g transform="translate(20.878125 243.736814) scale(0.1 -0.1)">
       <defs>
        <path id="DejaVuSans-31" d="M 794 531 
L 1825 531 
L 1825 4091 
L 703 3866 
L 703 4441 
L 1819 4666 
L 2450 4666 
L 2450 531 
L 3481 531 
L 3481 0 
L 794 0 
L 794 531 
z
" transform="scale(0.015625)"/>
       </defs>
       <use xlink:href="#DejaVuSans-30"/>
       <use xlink:href="#DejaVuSans-2e" transform="translate(63.623047 0)"/>
       <use xlink:href="#DejaVuSans-31" transform="translate(95.410156 0)"/>
       <use xlink:href="#DejaVuSans-30" transform="translate(159.033203 0)"/>
      </g>
     </g>
    </g>
    <g id="ytick_4">
     <g id="line2d_11">
      <g>
       <use xlink:href="#ma07c378654" x="50.14375" y="203.445696" style="stroke: #000000; stroke-width: 0.8"/>
      </g>
     </g>
     <g id="text_12">
      <!-- 0.15 -->
      <g transform="translate(20.878125 207.244915) scale(0.1 -0.1)">
       <use xlink:href="#DejaVuSans-30"/>
       <use xlink:href="#DejaVuSans-2e" transform="translate(63.623047 0)"/>
       <use xlink:href="#DejaVuSans-31" transform="translate(95.410156 0)"/>
       <use xlink:href="#DejaVuSans-35" transform="translate(159.033203 0)"/>
      </g>
     </g>
    </g>
    <g id="ytick_5">
     <g id="line2d_12">
      <g>
       <use xlink:href="#ma07c378654" x="50.14375" y="166.953796" style="stroke: #000000; stroke-width: 0.8"/>
      </g>
     </g>
     <g id="text_13">
      <!-- 0.20 -->
      <g transform="translate(20.878125 170.753015) scale(0.1 -0.1)">
       <use xlink:href="#DejaVuSans-30"/>
       <use xlink:href="#DejaVuSans-2e" transform="translate(63.623047 0)"/>
       <use xlink:href="#DejaVuSans-32" transform="translate(95.410156 0)"/>
       <use xlink:href="#DejaVuSans-30" transform="translate(159.033203 0)"/>
      </g>
     </g>
    </g>
    <g id="ytick_6">
     <g id="line2d_13">
      <g>
       <use xlink:href="#ma07c378654" x="50.14375" y="130.461897" style="stroke: #000000; stroke-width: 0.8"/>
      </g>
     </g>
     <g id="text_14">
      <!-- 0.25 -->
      <g transform="translate(20.878125 134.261115) scale(0.1 -0.1)">
       <use xlink:href="#DejaVuSans-30"/>
       <use xlink:href="#DejaVuSans-2e" transform="translate(63.623047 0)"/>
       <use xlink:href="#DejaVuSans-32" transform="translate(95.410156 0)"/>
       <use xlink:href="#DejaVuSans-35" transform="translate(159.033203 0)"/>
      </g>
     </g>
    </g>
    <g id="ytick_7">
     <g id="line2d_14">
      <g>
       <use xlink:href="#ma07c378654" x="50.14375" y="93.969997" style="stroke: #000000; stroke-width: 0.8"/>
      </g>
     </g>
     <g id="text_15">
      <!-- 0.30 -->
      <g transform="translate(20.878125 97.769216) scale(0.1 -0.1)">
       <defs>
        <path id="DejaVuSans-33" d="M 2597 2516 
Q 3050 2419 3304 2112 
Q 3559 1806 3559 1356 
Q 3559 666 3084 287 
Q 2609 -91 1734 -91 
Q 1441 -91 1130 -33 
Q 819 25 488 141 
L 488 750 
Q 750 597 1062 519 
Q 1375 441 1716 441 
Q 2309 441 2620 675 
Q 2931 909 2931 1356 
Q 2931 1769 2642 2001 
Q 2353 2234 1838 2234 
L 1294 2234 
L 1294 2753 
L 1863 2753 
Q 2328 2753 2575 2939 
Q 2822 3125 2822 3475 
Q 2822 3834 2567 4026 
Q 2313 4219 1838 4219 
Q 1578 4219 1281 4162 
Q 984 4106 628 3988 
L 628 4550 
Q 988 4650 1302 4700 
Q 1616 4750 1894 4750 
Q 2613 4750 3031 4423 
Q 3450 4097 3450 3541 
Q 3450 3153 3228 2886 
Q 3006 2619 2597 2516 
z
" transform="scale(0.015625)"/>
       </defs>
       <use xlink:href="#DejaVuSans-30"/>
       <use xlink:href="#DejaVuSans-2e" transform="translate(63.623047 0)"/>
       <use xlink:href="#DejaVuSans-33" transform="translate(95.410156 0)"/>
       <use xlink:href="#DejaVuSans-30" transform="translate(159.033203 0)"/>
      </g>
     </g>
    </g>
    <g id="ytick_8">
     <g id="line2d_15">
      <g>
       <use xlink:href="#ma07c378654" x="50.14375" y="57.478097" style="stroke: #000000; stroke-width: 0.8"/>
      </g>
     </g>
     <g id="text_16">
      <!-- 0.35 -->
      <g transform="translate(20.878125 61.277316) scale(0.1 -0.1)">
       <use xlink:href="#DejaVuSans-30"/>
       <use xlink:href="#DejaVuSans-2e" transform="translate(63.623047 0)"/>
       <use xlink:href="#DejaVuSans-33" transform="translate(95.410156 0)"/>
       <use xlink:href="#DejaVuSans-35" transform="translate(159.033203 0)"/>
      </g>
     </g>
    </g>
    <g id="ytick_9">
     <g id="line2d_16">
      <g>
       <use xlink:href="#ma07c378654" x="50.14375" y="20.986198" style="stroke: #000000; stroke-width: 0.8"/>
      </g>
     </g>
     <g id="text_17">
      <!-- 0.40 -->
      <g transform="translate(20.878125 24.785416) scale(0.1 -0.1)">
       <use xlink:href="#DejaVuSans-30"/>
       <use xlink:href="#DejaVuSans-2e" transform="translate(63.623047 0)"/>
       <use xlink:href="#DejaVuSans-34" transform="translate(95.410156 0)"/>
       <use xlink:href="#DejaVuSans-30" transform="translate(159.033203 0)"/>
      </g>
     </g>
    </g>
    <g id="text_18">
     <!-- Density -->
     <g transform="translate(14.798438 179.069291) rotate(-90) scale(0.1 -0.1)">
      <defs>
       <path id="DejaVuSans-44" d="M 1259 4147 
L 1259 519 
L 2022 519 
Q 2988 519 3436 956 
Q 3884 1394 3884 2338 
Q 3884 3275 3436 3711 
Q 2988 4147 2022 4147 
L 1259 4147 
z
M 628 4666 
L 1925 4666 
Q 3281 4666 3915 4102 
Q 4550 3538 4550 2338 
Q 4550 1131 3912 565 
Q 3275 0 1925 0 
L 628 0 
L 628 4666 
z
" transform="scale(0.015625)"/>
       <path id="DejaVuSans-65" d="M 3597 1894 
L 3597 1613 
L 953 1613 
Q 991 1019 1311 708 
Q 1631 397 2203 397 
Q 2534 397 2845 478 
Q 3156 559 3463 722 
L 3463 178 
Q 3153 47 2828 -22 
Q 2503 -91 2169 -91 
Q 1331 -91 842 396 
Q 353 884 353 1716 
Q 353 2575 817 3079 
Q 1281 3584 2069 3584 
Q 2775 3584 3186 3129 
Q 3597 2675 3597 1894 
z
M 3022 2063 
Q 3016 2534 2758 2815 
Q 2500 3097 2075 3097 
Q 1594 3097 1305 2825 
Q 1016 2553 972 2059 
L 3022 2063 
z
" transform="scale(0.015625)"/>
       <path id="DejaVuSans-6e" d="M 3513 2113 
L 3513 0 
L 2938 0 
L 2938 2094 
Q 2938 2591 2744 2837 
Q 2550 3084 2163 3084 
Q 1697 3084 1428 2787 
Q 1159 2491 1159 1978 
L 1159 0 
L 581 0 
L 581 3500 
L 1159 3500 
L 1159 2956 
Q 1366 3272 1645 3428 
Q 1925 3584 2291 3584 
Q 2894 3584 3203 3211 
Q 3513 2838 3513 2113 
z
" transform="scale(0.015625)"/>
       <path id="DejaVuSans-73" d="M 2834 3397 
L 2834 2853 
Q 2591 2978 2328 3040 
Q 2066 3103 1784 3103 
Q 1356 3103 1142 2972 
Q 928 2841 928 2578 
Q 928 2378 1081 2264 
Q 1234 2150 1697 2047 
L 1894 2003 
Q 2506 1872 2764 1633 
Q 3022 1394 3022 966 
Q 3022 478 2636 193 
Q 2250 -91 1575 -91 
Q 1294 -91 989 -36 
Q 684 19 347 128 
L 347 722 
Q 666 556 975 473 
Q 1284 391 1588 391 
Q 1994 391 2212 530 
Q 2431 669 2431 922 
Q 2431 1156 2273 1281 
Q 2116 1406 1581 1522 
L 1381 1569 
Q 847 1681 609 1914 
Q 372 2147 372 2553 
Q 372 3047 722 3315 
Q 1072 3584 1716 3584 
Q 2034 3584 2315 3537 
Q 2597 3491 2834 3397 
z
" transform="scale(0.015625)"/>
       <path id="DejaVuSans-69" d="M 603 3500 
L 1178 3500 
L 1178 0 
L 603 0 
L 603 3500 
z
M 603 4863 
L 1178 4863 
L 1178 4134 
L 603 4134 
L 603 4863 
z
" transform="scale(0.015625)"/>
       <path id="DejaVuSans-74" d="M 1172 4494 
L 1172 3500 
L 2356 3500 
L 2356 3053 
L 1172 3053 
L 1172 1153 
Q 1172 725 1289 603 
Q 1406 481 1766 481 
L 2356 481 
L 2356 0 
L 1766 0 
Q 1100 0 847 248 
Q 594 497 594 1153 
L 594 3053 
L 172 3053 
L 172 3500 
L 594 3500 
L 594 4494 
L 1172 4494 
z
" transform="scale(0.015625)"/>
       <path id="DejaVuSans-79" d="M 2059 -325 
Q 1816 -950 1584 -1140 
Q 1353 -1331 966 -1331 
L 506 -1331 
L 506 -850 
L 844 -850 
Q 1081 -850 1212 -737 
Q 1344 -625 1503 -206 
L 1606 56 
L 191 3500 
L 800 3500 
L 1894 763 
L 2988 3500 
L 3597 3500 
L 2059 -325 
z
" transform="scale(0.015625)"/>
      </defs>
      <use xlink:href="#DejaVuSans-44"/>
      <use xlink:href="#DejaVuSans-65" transform="translate(77.001953 0)"/>
      <use xlink:href="#DejaVuSans-6e" transform="translate(138.525391 0)"/>
      <use xlink:href="#DejaVuSans-73" transform="translate(201.904297 0)"/>
      <use xlink:href="#DejaVuSans-69" transform="translate(254.003906 0)"/>
      <use xlink:href="#DejaVuSans-74" transform="translate(281.787109 0)"/>
      <use xlink:href="#DejaVuSans-79" transform="translate(320.996094 0)"/>
     </g>
    </g>
   </g>
   <g id="line2d_17">
    <path d="M 223.833789 312.921395 
L 223.833789 7.2 
" clip-path="url(#p9eb8e76539)" style="fill: none; stroke: #000000; stroke-width: 1.5; stroke-linecap: square"/>
   </g>
   <g id="line2d_18">
    <path d="M 79.09209 312.92031 
L 109.401002 312.803648 
L 118.085504 312.552897 
L 123.846223 312.174009 
L 128.275319 311.668341 
L 131.951758 311.031075 
L 135.136076 310.257376 
L 137.973013 309.341598 
L 140.549415 308.278586 
L 142.952128 307.04663 
L 145.210098 305.638299 
L 147.352275 304.041391 
L 149.436556 302.208651 
L 151.462939 300.128575 
L 153.460375 297.756192 
L 155.428862 295.071466 
L 157.397349 292.008383 
L 159.365836 288.532704 
L 161.363272 284.549415 
L 163.389655 280.003644 
L 165.444988 274.839478 
L 167.558216 268.915832 
L 169.729342 262.151501 
L 171.958364 254.466698 
L 174.274231 245.671729 
L 176.705892 235.544204 
L 179.282294 223.833493 
L 182.032386 210.272329 
L 185.071962 194.123516 
L 188.545763 174.416793 
L 193.1196 147.081382 
L 201.833051 94.792958 
L 205.017368 77.203896 
L 207.622719 64.013221 
L 209.880689 53.689749 
L 211.878125 45.560463 
L 213.672922 39.152706 
L 215.294029 34.155721 
L 216.770394 30.297775 
L 218.102018 27.409969 
L 219.317848 25.279568 
L 220.417885 23.7782 
L 221.431077 22.759348 
L 222.357424 22.136573 
L 223.196926 21.828615 
L 224.007479 21.763403 
L 224.818033 21.926405 
L 225.628586 22.31724 
L 226.497036 22.987761 
L 227.452332 24.024012 
L 228.465523 25.4613 
L 229.594509 27.466637 
L 230.810339 30.092091 
L 232.170911 33.586319 
L 233.647276 38.016954 
L 235.268383 43.609128 
L 237.06318 50.62909 
L 239.060616 59.375196 
L 241.318586 70.306341 
L 243.923937 84.071559 
L 247.079306 102.001261 
L 251.595247 129.085488 
L 259.72973 177.947141 
L 263.377221 198.383463 
L 266.503642 214.668369 
L 269.340579 228.291121 
L 271.974878 239.874652 
L 274.464435 249.84267 
L 276.838199 258.45393 
L 279.125118 265.93613 
L 281.35414 272.482198 
L 283.525266 278.178953 
L 285.638495 283.113552 
L 287.722775 287.426976 
L 289.778107 291.179478 
L 291.833439 294.472886 
L 293.859823 297.3084 
L 295.915155 299.805379 
L 297.970487 301.958422 
L 300.083716 303.851996 
L 302.254842 305.49869 
L 304.512812 306.930747 
L 306.886576 308.17064 
L 309.405082 309.234015 
L 312.126226 310.140886 
L 315.136853 310.90759 
L 318.552757 311.543038 
L 322.547628 312.052181 
L 327.410949 312.438114 
L 333.779584 312.706696 
L 343.274639 312.862856 
L 363.30689 312.918744 
L 368.54654 312.920304 
L 368.54654 312.920304 
" clip-path="url(#p9eb8e76539)" style="fill: none; stroke: #000000; stroke-width: 1.5; stroke-linecap: square"/>
   </g>
   <g id="patch_33">
    <path d="M 50.14375 312.921395 
L 50.14375 7.2 
" style="fill: none; stroke: #000000; stroke-width: 0.8; stroke-linejoin: miter; stroke-linecap: square"/>
   </g>
   <g id="patch_34">
    <path d="M 397.523828 312.921395 
L 397.523828 7.2 
" style="fill: none; stroke: #000000; stroke-width: 0.8; stroke-linejoin: miter; stroke-linecap: square"/>
   </g>
   <g id="patch_35">
    <path d="M 50.14375 312.921395 
L 397.523828 312.921395 
" style="fill: none; stroke: #000000; stroke-width: 0.8; stroke-linejoin: miter; stroke-linecap: square"/>
   </g>
   <g id="patch_36">
    <path d="M 50.14375 7.2 
L 397.523828 7.2 
" style="fill: none; stroke: #000000; stroke-width: 0.8; stroke-linejoin: miter; stroke-linecap: square"/>
   </g>
   <g id="legend_1">
    <g id="patch_37">
     <path d="M 332.571719 44.55625 
L 459.999844 44.55625 
Q 461.999844 44.55625 461.999844 42.55625 
L 461.999844 14.2 
Q 461.999844 12.2 459.999844 12.2 
L 332.571719 12.2 
Q 330.571719 12.2 330.571719 14.2 
L 330.571719 42.55625 
Q 330.571719 44.55625 332.571719 44.55625 
z
" style="fill: #ffffff; opacity: 0.8; stroke: #cccccc; stroke-linejoin: miter"/>
    </g>
    <g id="line2d_19">
     <path d="M 334.571719 20.298437 
L 344.571719 20.298437 
L 354.571719 20.298437 
" style="fill: none; stroke: #000000; stroke-width: 1.5; stroke-linecap: square"/>
    </g>
    <g id="text_19">
     <!-- $\mathcal{N}(0, 1)$ -->
     <g transform="translate(362.571719 23.798437) scale(0.1 -0.1)">
      <defs>
       <path id="STIXNonUnicode-Italic-e23a" d="M 4294 800 
L 4301 800 
Q 5293 4070 5408 4378 
Q 5472 4538 5523 4614 
Q 5830 5088 6253 5088 
Q 6490 5088 6650 4931 
Q 6810 4774 6810 4550 
Q 6810 4378 6720 4272 
Q 6630 4166 6470 4166 
Q 6368 4166 6297 4224 
Q 6227 4282 6198 4349 
Q 6170 4416 6118 4473 
Q 6067 4531 6003 4531 
Q 5939 4531 5881 4508 
Q 5824 4486 5785 4457 
Q 5747 4429 5705 4371 
Q 5664 4314 5638 4275 
Q 5613 4237 5584 4163 
Q 5555 4090 5545 4058 
Q 5536 4026 5510 3952 
Q 5485 3878 5485 3866 
L 4262 -154 
L 4134 -154 
Q 3078 1280 2483 2893 
L 2470 2893 
Q 2406 2579 2358 2361 
Q 2310 2144 2214 1792 
Q 2118 1440 2028 1190 
Q 1939 941 1804 653 
Q 1670 365 1529 185 
Q 1389 6 1203 -115 
Q 1018 -237 813 -237 
Q 576 -237 416 -80 
Q 256 77 256 301 
Q 256 474 345 579 
Q 435 685 595 685 
Q 698 685 768 627 
Q 838 570 867 502 
Q 896 435 947 377 
Q 998 320 1062 320 
Q 1222 320 1369 480 
Q 1517 640 1638 928 
Q 1760 1216 1862 1542 
Q 1965 1869 2057 2288 
Q 2150 2707 2214 3033 
Q 2278 3360 2348 3741 
Q 2419 4122 2458 4294 
L 2630 4294 
Q 2682 4166 2874 3680 
Q 3066 3194 3142 3008 
Q 3219 2822 3392 2422 
Q 3565 2022 3683 1798 
Q 3802 1574 3968 1292 
Q 4134 1011 4294 800 
z
" transform="scale(0.015625)"/>
       <path id="DejaVuSans-2c" d="M 750 794 
L 1409 794 
L 1409 256 
L 897 -744 
L 494 -744 
L 750 256 
L 750 794 
z
" transform="scale(0.015625)"/>
      </defs>
      <use xlink:href="#STIXNonUnicode-Italic-e23a" transform="translate(0 0.5)"/>
      <use xlink:href="#DejaVuSans-28" transform="translate(95.699982 0.5)"/>
      <use xlink:href="#DejaVuSans-30" transform="translate(134.713654 0.5)"/>
      <use xlink:href="#DejaVuSans-2c" transform="translate(198.3367 0.5)"/>
      <use xlink:href="#DejaVuSans-31" transform="translate(249.606232 0.5)"/>
      <use xlink:href="#DejaVuSans-29" transform="translate(313.229279 0.5)"/>
     </g>
    </g>
    <g id="patch_38">
     <path d="M 334.571719 38.476562 
L 354.571719 38.476562 
L 354.571719 31.476562 
L 334.571719 31.476562 
z
" style="fill: #a1c9f4; fill-opacity: 0.75; stroke: #001c7f; stroke-linejoin: miter"/>
    </g>
    <g id="text_20">
     <!-- Non-orthogonal ML -->
     <g transform="translate(362.571719 38.476562) scale(0.1 -0.1)">
      <defs>
       <path id="DejaVuSans-4e" d="M 628 4666 
L 1478 4666 
L 3547 763 
L 3547 4666 
L 4159 4666 
L 4159 0 
L 3309 0 
L 1241 3903 
L 1241 0 
L 628 0 
L 628 4666 
z
" transform="scale(0.015625)"/>
       <path id="DejaVuSans-6f" d="M 1959 3097 
Q 1497 3097 1228 2736 
Q 959 2375 959 1747 
Q 959 1119 1226 758 
Q 1494 397 1959 397 
Q 2419 397 2687 759 
Q 2956 1122 2956 1747 
Q 2956 2369 2687 2733 
Q 2419 3097 1959 3097 
z
M 1959 3584 
Q 2709 3584 3137 3096 
Q 3566 2609 3566 1747 
Q 3566 888 3137 398 
Q 2709 -91 1959 -91 
Q 1206 -91 779 398 
Q 353 888 353 1747 
Q 353 2609 779 3096 
Q 1206 3584 1959 3584 
z
" transform="scale(0.015625)"/>
       <path id="DejaVuSans-2d" d="M 313 2009 
L 1997 2009 
L 1997 1497 
L 313 1497 
L 313 2009 
z
" transform="scale(0.015625)"/>
       <path id="DejaVuSans-72" d="M 2631 2963 
Q 2534 3019 2420 3045 
Q 2306 3072 2169 3072 
Q 1681 3072 1420 2755 
Q 1159 2438 1159 1844 
L 1159 0 
L 581 0 
L 581 3500 
L 1159 3500 
L 1159 2956 
Q 1341 3275 1631 3429 
Q 1922 3584 2338 3584 
Q 2397 3584 2469 3576 
Q 2541 3569 2628 3553 
L 2631 2963 
z
" transform="scale(0.015625)"/>
       <path id="DejaVuSans-68" d="M 3513 2113 
L 3513 0 
L 2938 0 
L 2938 2094 
Q 2938 2591 2744 2837 
Q 2550 3084 2163 3084 
Q 1697 3084 1428 2787 
Q 1159 2491 1159 1978 
L 1159 0 
L 581 0 
L 581 4863 
L 1159 4863 
L 1159 2956 
Q 1366 3272 1645 3428 
Q 1925 3584 2291 3584 
Q 2894 3584 3203 3211 
Q 3513 2838 3513 2113 
z
" transform="scale(0.015625)"/>
       <path id="DejaVuSans-67" d="M 2906 1791 
Q 2906 2416 2648 2759 
Q 2391 3103 1925 3103 
Q 1463 3103 1205 2759 
Q 947 2416 947 1791 
Q 947 1169 1205 825 
Q 1463 481 1925 481 
Q 2391 481 2648 825 
Q 2906 1169 2906 1791 
z
M 3481 434 
Q 3481 -459 3084 -895 
Q 2688 -1331 1869 -1331 
Q 1566 -1331 1297 -1286 
Q 1028 -1241 775 -1147 
L 775 -588 
Q 1028 -725 1275 -790 
Q 1522 -856 1778 -856 
Q 2344 -856 2625 -561 
Q 2906 -266 2906 331 
L 2906 616 
Q 2728 306 2450 153 
Q 2172 0 1784 0 
Q 1141 0 747 490 
Q 353 981 353 1791 
Q 353 2603 747 3093 
Q 1141 3584 1784 3584 
Q 2172 3584 2450 3431 
Q 2728 3278 2906 2969 
L 2906 3500 
L 3481 3500 
L 3481 434 
z
" transform="scale(0.015625)"/>
       <path id="DejaVuSans-61" d="M 2194 1759 
Q 1497 1759 1228 1600 
Q 959 1441 959 1056 
Q 959 750 1161 570 
Q 1363 391 1709 391 
Q 2188 391 2477 730 
Q 2766 1069 2766 1631 
L 2766 1759 
L 2194 1759 
z
M 3341 1997 
L 3341 0 
L 2766 0 
L 2766 531 
Q 2569 213 2275 61 
Q 1981 -91 1556 -91 
Q 1019 -91 701 211 
Q 384 513 384 1019 
Q 384 1609 779 1909 
Q 1175 2209 1959 2209 
L 2766 2209 
L 2766 2266 
Q 2766 2663 2505 2880 
Q 2244 3097 1772 3097 
Q 1472 3097 1187 3025 
Q 903 2953 641 2809 
L 641 3341 
Q 956 3463 1253 3523 
Q 1550 3584 1831 3584 
Q 2591 3584 2966 3190 
Q 3341 2797 3341 1997 
z
" transform="scale(0.015625)"/>
       <path id="DejaVuSans-6c" d="M 603 4863 
L 1178 4863 
L 1178 0 
L 603 0 
L 603 4863 
z
" transform="scale(0.015625)"/>
       <path id="DejaVuSans-20" transform="scale(0.015625)"/>
       <path id="DejaVuSans-4d" d="M 628 4666 
L 1569 4666 
L 2759 1491 
L 3956 4666 
L 4897 4666 
L 4897 0 
L 4281 0 
L 4281 4097 
L 3078 897 
L 2444 897 
L 1241 4097 
L 1241 0 
L 628 0 
L 628 4666 
z
" transform="scale(0.015625)"/>
       <path id="DejaVuSans-4c" d="M 628 4666 
L 1259 4666 
L 1259 531 
L 3531 531 
L 3531 0 
L 628 0 
L 628 4666 
z
" transform="scale(0.015625)"/>
      </defs>
      <use xlink:href="#DejaVuSans-4e"/>
      <use xlink:href="#DejaVuSans-6f" transform="translate(74.804688 0)"/>
      <use xlink:href="#DejaVuSans-6e" transform="translate(135.986328 0)"/>
      <use xlink:href="#DejaVuSans-2d" transform="translate(199.365234 0)"/>
      <use xlink:href="#DejaVuSans-6f" transform="translate(237.324219 0)"/>
      <use xlink:href="#DejaVuSans-72" transform="translate(298.505859 0)"/>
      <use xlink:href="#DejaVuSans-74" transform="translate(339.619141 0)"/>
      <use xlink:href="#DejaVuSans-68" transform="translate(378.828125 0)"/>
      <use xlink:href="#DejaVuSans-6f" transform="translate(442.207031 0)"/>
      <use xlink:href="#DejaVuSans-67" transform="translate(503.388672 0)"/>
      <use xlink:href="#DejaVuSans-6f" transform="translate(566.865234 0)"/>
      <use xlink:href="#DejaVuSans-6e" transform="translate(628.046875 0)"/>
      <use xlink:href="#DejaVuSans-61" transform="translate(691.425781 0)"/>
      <use xlink:href="#DejaVuSans-6c" transform="translate(752.705078 0)"/>
      <use xlink:href="#DejaVuSans-20" transform="translate(780.488281 0)"/>
      <use xlink:href="#DejaVuSans-4d" transform="translate(812.275391 0)"/>
      <use xlink:href="#DejaVuSans-4c" transform="translate(898.554688 0)"/>
     </g>
    </g>
   </g>
  </g>
 </g>
 <defs>
  <clipPath id="p9eb8e76539">
   <rect x="50.14375" y="7.2" width="347.380078" height="305.721395"/>
  </clipPath>
 </defs>
</svg>
